<?xml version="1.0" encoding="utf-8"?>
<!-- Generator: Adobe Illustrator 16.0.0, SVG Export Plug-In . SVG Version: 6.00 Build 0)  -->
<!DOCTYPE svg PUBLIC "-//W3C//DTD SVG 1.1//EN" "http://www.w3.org/Graphics/SVG/1.1/DTD/svg11.dtd">
<svg version="1.1" id="Layer_1" xmlns="http://www.w3.org/2000/svg" xmlns:xlink="http://www.w3.org/1999/xlink" x="0px" y="0px"
	 width="1980px" height="6480px" viewBox="0 0 1980 6480" enable-background="new 0 0 1980 6480" xml:space="preserve">
<linearGradient id="SVGID_1_" gradientUnits="userSpaceOnUse" x1="441.7563" y1="4848.3848" x2="1538.4076" y2="6747.8408" gradientTransform="matrix(1 0 0 -1 0 6481)">
	<stop  offset="0.1667" style="stop-color:#FEDC6A"/>
	<stop  offset="0.3118" style="stop-color:#F47C20"/>
	<stop  offset="0.6022" style="stop-color:#ED2290"/>
	<stop  offset="0.9032" style="stop-color:#6A2365"/>
</linearGradient>
<rect x="-4.836" y="-9" fill="url(#SVGID_1_)" width="1989.836" height="1383.775"/>
<linearGradient id="SVGID_2_" gradientUnits="userSpaceOnUse" x1="442.8926" y1="-273.2813" x2="1542.9403" y2="1632.0576" gradientTransform="matrix(1 0 0 -1 0 6481)">
	<stop  offset="0.1237" style="stop-color:#6A2365"/>
	<stop  offset="0.3871" style="stop-color:#ED2290"/>
	<stop  offset="0.7043" style="stop-color:#F47C20"/>
	<stop  offset="0.8441" style="stop-color:#FEDC6A"/>
</linearGradient>
<rect x="-1" y="5105.225" fill="url(#SVGID_2_)" stroke="#E0E0E0" stroke-width="1.0083" stroke-miterlimit="10" width="1987.834" height="1392.775"/>
<polygon fill="#FDFDFE" points="2798.855,599.771 558.525,1099.79 -480.613,841.258 -609.811,1360.549 -1585,1578.201 
	-663.718,5706 1258.182,5277.055 2331.196,5544.014 2464.604,5007.797 3720.145,4727.572 "/>
<circle fill="#FFFFFF" cx="1691.974" cy="926.34" r="3.711"/>
<path fill="none" d="M174.387,136.192c-6.191,6.324-16.494,6.334-22.807,0.016c-6.292-6.298-6.276-16.659,0.101-22.898
	c6.331-6.191,16.52-6.362,22.978,0.273C180.723,119.816,180.706,130.059,174.387,136.192z"/>
<path fill="none" d="M166.721,155.786c-2.075,2.063-5.424,2.07-7.478,0.018c-2.021-2.018-2.246-5.343-0.019-7.541
	c2.289-2.262,5.441-2.152,7.586-0.01C168.87,150.308,168.939,153.563,166.721,155.786z"/>
<g>
	<path fill="#FFFFFF" stroke="#FFFFFF" stroke-miterlimit="10" d="M416.342,689.815c-5.049-5.865-9.717-11.324-14.425-16.751
		c-2.512-2.896-5.14-5.696-7.604-8.633c-0.595-0.711-1.062-1.787-1.066-2.698c-0.067-11.079-0.035-22.16-0.032-33.239
		c-0.003-0.813-0.032-1.623-0.423-2.6c-0.299,0.595-0.632,1.175-0.895,1.783c-3.452,7.958-6.92,15.91-10.319,23.892
		c-0.646,1.521-1.442,2.038-3.214,2.023c-9.563-0.095-19.125,0.062-28.688,0.065c-6.835,0.004-13.665-0.136-20.501-0.148
		c-5.53-0.012-11.063,0.077-16.593,0.104c-2.322,0.013-4.65,0.079-6.96-0.087c-0.612-0.043-1.434-0.748-1.708-1.35
		c-3.325-7.422-6.562-14.886-9.825-22.337c-0.568-1.296-1.137-2.593-1.702-3.89c-0.239,0.017-0.478,0.032-0.717,0.049
		c0.108,4.027,0.274,8.052,0.303,12.08c0.062,7.855,0.064,15.71,0.023,23.566c-0.006,0.749-0.32,1.654-0.807,2.22
		c-7.124,8.324-14.3,16.604-21.471,24.89c-0.256,0.3-0.557,0.565-1.087,1.093c-0.836-4.184-1.623-8.112-2.404-12.045
		c-2.654-13.337-5.335-26.673-7.954-40.017c-2.028-10.333-3.974-20.684-5.985-31.023c-0.856-4.424-1.754-8.846-2.695-13.253
		c-0.224-1.058-0.096-1.661,0.889-2.359c7.745-5.511,15.413-11.127,23.141-16.661c1.533-1.097,2.174-2.164,1.728-4.223
		c-1.553-7.146-3.176-14.303-4.125-21.537c-1.39-10.631-2.43-21.318-3.231-32.009c-0.501-6.665-0.53-13.387-0.335-20.068
		c0.227-7.782,0.696-15.575,1.483-23.321c0.833-8.151,1.888-16.3,3.345-24.358c1.567-8.66,3.561-17.254,5.67-25.803
		c1.64-6.63,3.639-13.177,5.682-19.698c1.841-5.864,3.939-11.649,6.002-17.442c0.164-0.46,0.956-0.985,1.463-0.995
		c4.982-0.076,9.965-0.057,14.947-0.055c7.025,0.009,14.052,0.029,21.083,0.034c7.232,0.006,14.469,0.01,21.707-0.005
		c7.989-0.013,15.979-0.045,23.974-0.081c7.441-0.029,14.887-0.07,22.482-0.108c1.958,5.604,4.029,10.959,5.699,16.436
		c2.511,8.234,4.854,16.524,7.045,24.849c1.479,5.606,2.783,11.273,3.808,16.979c1.448,8.066,2.753,16.168,3.788,24.295
		c1.641,12.899,2.567,25.878,1.955,38.872c-0.571,12.077-1.34,24.173-2.759,36.173c-1.122,9.475-3.319,18.824-5.148,28.21
		c-0.265,1.364-0.225,2.156,1.021,3.049c7.838,5.622,15.577,11.382,23.402,17.02c1.314,0.95,1.608,1.891,1.271,3.453
		c-1.253,5.74-2.352,11.516-3.514,17.277c-1.413,7.031-2.845,14.055-4.248,21.087c-1.119,5.63-2.188,11.272-3.316,16.901
		c-1.393,6.959-2.841,13.91-4.233,20.871c-1.127,5.632-2.206,11.274-3.313,16.911C416.813,687.915,416.625,688.619,416.342,689.815z
		 M376.655,502.371c18.854-18.299,18.903-48.858,0.81-67.455c-19.268-19.797-49.667-19.288-68.556-0.815
		c-19.026,18.614-19.073,49.526-0.3,68.318C327.443,521.269,358.183,521.24,376.655,502.371z M353.783,560.833
		c6.62-6.632,6.413-16.344,0.268-22.476c-6.397-6.391-15.804-6.718-22.633,0.03c-6.643,6.56-5.973,16.479,0.055,22.499
		C337.601,567.008,347.591,566.988,353.783,560.833z"/>
	<path fill="#FFFFFF" stroke="#FFFFFF" stroke-miterlimit="10" d="M392.756,377.688c-33.289-0.079-66.283-0.156-99.251-0.234
		c1.052-11.099,39.262-81.076,49.658-90.455C363.628,315.031,379.659,345.384,392.756,377.688z"/>
	<path fill="#FFFFFF" stroke="#FFFFFF" stroke-miterlimit="10" d="M373.098,665.975c0.714,2.47,1.541,4.914,2.13,7.415
		c2.238,9.557,3.474,19.242,3.085,29.064c-0.396,10.004-1.926,19.848-4.554,29.529c-2.715,10-6.418,19.614-11.156,28.805
		c-4.608,8.946-9.783,17.556-16.214,25.352c-1.334,1.619-2.607,3.29-4.242,5.363c-3.234-4.465-6.291-8.562-9.22-12.752
		c-5.378-7.696-9.866-15.91-13.744-24.455c-4.649-10.25-8.129-20.894-10.259-31.937c-1.655-8.596-2.427-17.282-2.167-26.07
		c0.248-8.317,1.387-16.475,3.502-24.505c0.514-1.959,1.163-3.884,1.958-5.839c2.25,34.351,11.729,66.365,30.191,95.803
		c18.432-29.453,28.044-61.394,30.174-95.706C372.751,666.02,372.923,665.997,373.098,665.975z"/>
</g>
<path fill="#FDFDFE" d="M303.93,819.075c0,0,12.047-34.615,24.113-47.852h28.775c0,0,23.48,29.406,29.082,51.967L303.93,819.075z"/>
<path fill="#FDFDFE" d="M717.867,1076.433c0-9.027-6.796-16.46-15.549-17.484c0.319-1.329,0.509-2.709,0.509-4.138
	c0-3.855-1.253-7.411-3.355-10.313c1.47-2.063,2.341-4.578,2.341-7.303c0-6.969-5.648-12.617-12.616-12.617
	c-0.728,0-1.436,0.075-2.128,0.193c3.748-4.437,6.017-10.161,6.017-16.424c0-14.077-11.413-25.49-25.491-25.49
	c-0.885,0-1.759,0.045-2.62,0.133c1.676-3.396,2.621-7.217,2.621-11.259c0-14.078-11.413-25.491-25.491-25.491
	c-0.084,0-0.167,0.005-0.251,0.006c0.163-1.163,0.253-2.349,0.253-3.556c0-14.078-11.413-25.491-25.491-25.491
	c-9.704,0-18.141,5.424-22.446,13.404c-2.425-1.259-5.173-1.98-8.094-1.98c-6.643,0-12.42,3.679-15.422,9.107
	c-2.025-2.211-4.819-3.707-7.968-4.037c0.839-2.524,1.299-5.222,1.299-8.026c0-14.071-11.408-25.479-25.479-25.479
	c-1.284,0-2.544,0.097-3.776,0.279c2.408-4.698,3.776-10.021,3.776-15.664c0-19.001-15.405-34.406-34.406-34.406
	c-12.559,0-23.542,6.731-29.549,16.78c-1.816-7.794-8.793-13.607-17.141-13.607c-4.474,0-8.544,1.681-11.651,4.428
	c-2.249-3.464-6.145-5.761-10.583-5.761c-1.362,0-2.671,0.222-3.899,0.622c0.204-1.428,0.316-2.885,0.316-4.37
	c0-16.798-13.618-30.416-30.416-30.416c-5.932,0-11.463,1.705-16.143,4.642L336,805.333l-31.111,13.331
	c-3.33-2.095-7.258-3.325-11.482-3.325c-11.755,0-21.299,9.39-21.589,21.074c-2.989-1.97-6.563-3.125-10.411-3.125
	c-9.087,0-16.673,6.401-18.516,14.938c-2.308-2.969-5.905-4.888-9.957-4.888c-1.775,0-3.463,0.371-4.996,1.032
	c-5.498-4.625-12.59-7.416-20.337-7.416c-14.898,0-27.383,10.309-30.729,24.181c-7.241,2.665-12.417,9.604-12.417,17.77
	c0,2.957,0.697,5.744,1.905,8.237c-5.968,1-10.521,6.177-10.521,12.43c0,1.05,0.143,2.063,0.384,3.038
	c-0.845-0.053-1.693-0.089-2.551-0.089c-22.183,0-40.167,17.983-40.167,40.167c0,2.42,0.226,4.787,0.637,7.09
	c-0.976-0.111-1.965-0.175-2.97-0.175c-11.292,0-20.898,7.2-24.489,17.257c-1.777-0.384-3.62-0.591-5.511-0.591
	c-14.359,0-26,11.642-26,26v119.396l637.117,7.151c0.626,0.067,1.261,0.107,1.906,0.107c0.468,0,0.927-0.034,1.385-0.07l6.23,0.07
	l-0.275-1.617c6.06-2.786,10.275-8.894,10.275-16c0-3.536-1.052-6.821-2.845-9.58
	C714.279,1088.694,717.867,1082.987,717.867,1076.433z"/>
<polygon fill="#FFFFFF" points="867.568,106.114 863,105.323 859.759,108.637 859.1,104.048 854.947,101.99 859.107,99.945 
	859.781,95.358 863.012,98.684 867.582,97.908 865.418,102.008 "/>
<polygon fill="#FFFFFF" points="1627.461,229.997 1622.893,229.205 1619.651,232.519 1618.992,227.93 1614.84,225.872 1619,223.827 
	1619.674,219.241 1622.904,222.566 1627.475,221.791 1625.311,225.89 "/>
<polygon fill="#FFFFFF" points="1688.249,700.932 1683.681,700.141 1680.439,703.455 1679.78,698.866 1675.628,696.808 
	1679.788,694.763 1680.462,690.176 1683.692,693.501 1688.263,692.726 1686.099,696.826 "/>
<polygon fill="#FFFFFF" points="1845.15,128.906 1840.582,128.114 1837.341,131.428 1836.682,126.839 1832.529,124.781 
	1836.689,122.736 1837.363,118.15 1840.594,121.475 1845.164,120.7 1843,124.799 "/>
<polygon fill="#FFFFFF" points="1303.568,106.114 1299,105.323 1295.759,108.637 1295.1,104.048 1290.947,101.99 1295.107,99.945 
	1295.781,95.358 1299.012,98.684 1303.582,97.908 1301.418,102.008 "/>
<polygon fill="#FFFFFF" points="1911.15,801.324 1906.582,800.532 1903.341,803.846 1902.682,799.257 1898.529,797.199 
	1902.689,795.154 1903.363,790.568 1906.594,793.893 1911.164,793.118 1909,797.217 "/>
<polygon fill="#FFFFFF" points="1275.568,926.746 1271,925.954 1267.759,929.268 1267.1,924.679 1262.947,922.621 1267.107,920.576 
	1267.781,915.99 1271.012,919.315 1275.582,918.54 1273.418,922.639 "/>
<polygon fill="#FFFFFF" points="783.161,1020.337 778.593,1019.546 775.352,1022.86 774.692,1018.271 770.54,1016.213 
	774.7,1014.168 775.374,1009.582 778.604,1012.907 783.175,1012.131 781.011,1016.231 "/>
<polygon fill="#FFFFFF" points="574.76,316.292 570.191,315.5 566.95,318.814 566.291,314.226 562.139,312.167 566.299,310.123 
	566.973,305.536 570.203,308.861 574.773,308.086 572.609,312.186 "/>
<polygon fill="#FFFFFF" points="920.81,883.023 916.241,882.231 913,885.545 912.341,880.957 908.188,878.898 912.349,876.854 
	913.021,872.267 916.253,875.592 920.823,874.817 918.659,878.917 "/>
<polygon fill="#FFFFFF" points="119.81,309.653 115.241,308.861 112,312.175 111.341,307.586 107.188,305.528 111.349,303.483 
	112.022,298.897 115.253,302.222 119.823,301.447 117.659,305.546 "/>
<polygon fill="#FFFFFF" points="132.444,663.422 127.876,662.63 124.635,665.944 123.976,661.355 119.823,659.297 123.983,657.252 
	124.657,652.666 127.888,655.991 132.458,655.216 130.294,659.315 "/>
<polygon fill="#FFFFFF" points="61.477,56.431 56.908,55.639 53.667,58.953 53.008,54.364 48.855,52.306 53.016,50.261 
	53.689,45.675 56.92,49 61.49,48.225 59.326,52.324 "/>
<polygon fill="#FFFFFF" points="38.477,5524.885 33.908,5524.094 30.667,5527.407 30.008,5522.818 25.855,5520.76 30.016,5518.715 
	30.689,5514.129 33.92,5517.454 38.49,5516.68 36.326,5520.777 "/>
<g>
	<path fill="none" d="M151.387,5604.646c-6.191,6.324-16.494,6.334-22.807,0.016c-6.292-6.299-6.276-16.659,0.101-22.898
		c6.331-6.19,16.52-6.36,22.978,0.273C157.723,5588.271,157.706,5598.514,151.387,5604.646z"/>
	<path fill="none" d="M143.721,5624.24c-2.075,2.063-5.424,2.07-7.478,0.018c-2.021-2.018-2.246-5.342-0.019-7.541
		c2.289-2.262,5.441-2.15,7.586-0.01C145.87,5618.762,145.939,5622.018,143.721,5624.24z"/>
	<polygon fill="#FFFFFF" points="596.621,5629.125 592.053,5628.334 588.813,5631.646 588.152,5627.059 584,5625 588.16,5622.955 
		588.834,5618.369 592.064,5621.693 596.635,5620.919 594.471,5625.02 	"/>
	<polygon fill="#FFFFFF" points="1682,5832 1677.432,5831.209 1674.189,5834.521 1673.531,5829.934 1669.379,5827.875 
		1673.539,5825.83 1674.213,5821.244 1677.443,5824.568 1682.014,5823.793 1679.85,5827.893 	"/>
	<polygon fill="#FFFFFF" points="1713.557,5515.43 1708.988,5514.639 1705.747,5517.953 1705.088,5513.363 1700.936,5511.307 
		1705.096,5509.262 1705.77,5504.674 1709,5508 1713.57,5507.225 1711.406,5511.324 	"/>
	<polygon fill="#FFFFFF" points="1082.621,5494.125 1078.053,5493.334 1074.813,5496.646 1074.152,5492.059 1070,5490 
		1074.16,5487.955 1074.834,5483.369 1078.064,5486.693 1082.635,5485.919 1080.471,5490.02 	"/>
	<polygon fill="#FFFFFF" points="1385,5571 1380.432,5570.209 1377.189,5573.521 1376.531,5568.934 1372.379,5566.875 
		1376.539,5564.83 1377.213,5560.244 1380.443,5563.568 1385.014,5562.794 1382.85,5566.895 	"/>
	<polygon fill="#FFFFFF" points="1907,6219 1902.432,6218.209 1899.189,6221.523 1898.531,6216.934 1894.379,6214.877 
		1898.539,6212.831 1899.213,6208.244 1902.443,6211.57 1907.014,6210.795 1904.85,6214.895 	"/>
	<polygon fill="#FFFFFF" points="312.81,5910.477 308.241,5909.686 305,5913 304.341,5908.41 300.188,5906.354 304.349,5904.309 
		305.022,5899.721 308.253,5903.047 312.823,5902.271 310.659,5906.371 	"/>
	<polygon fill="#FFFFFF" points="123.81,5721.479 119.241,5720.688 116,5724 115.341,5719.412 111.188,5717.354 115.349,5715.309 
		116.022,5710.723 119.253,5714.047 123.823,5713.271 121.659,5717.371 	"/>
	<polygon fill="#FFFFFF" points="147.568,6237.793 143,6237 139.759,6240.314 139.1,6235.727 134.947,6233.668 139.107,6231.623 
		139.781,6227.036 143.012,6230.361 147.582,6229.586 145.418,6233.686 	"/>
	<circle fill="#FFFFFF" cx="1666.58" cy="6255.773" r="3.711"/>
	<polygon fill="#FFFFFF" points="1662.855,6030.367 1658.287,6029.575 1655.045,6032.889 1654.386,6028.301 1650.234,6026.242 
		1654.395,6024.197 1655.068,6019.611 1658.298,6022.936 1662.869,6022.16 1660.705,6026.26 	"/>
	<polygon fill="#FFFFFF" points="1440.075,5935.964 1435.506,5935.172 1432.265,5938.486 1431.605,5933.898 1427.454,5931.84 
		1431.614,5929.795 1432.288,5925.209 1435.518,5928.533 1440.088,5927.758 1437.924,5931.857 	"/>
	<polygon fill="#FFFFFF" points="1250.174,6256.18 1245.605,6255.389 1242.365,6258.703 1241.706,6254.113 1237.553,6252.057 
		1241.713,6250.012 1242.387,6245.424 1245.618,6248.75 1250.188,6247.975 1248.024,6252.074 	"/>
	<polygon fill="#FFFFFF" points="757.767,6349.771 753.199,6348.98 749.958,6352.295 749.298,6347.705 745.146,6345.648 
		749.306,6343.604 749.98,6339.016 753.21,6342.342 757.781,6341.566 755.617,6345.666 	"/>
	<polygon fill="#FFFFFF" points="705.094,5999.496 700.526,5998.704 697.285,6002.018 696.625,5997.43 692.473,5995.371 
		696.633,5993.326 697.307,5988.74 700.538,5992.064 705.108,5991.289 702.944,5995.389 	"/>
	<polygon fill="#FFFFFF" points="895.416,6212.457 890.847,6211.666 887.606,6214.98 886.947,6210.391 882.794,6208.334 
		886.955,6206.288 887.628,6201.701 890.859,6205.027 895.429,6204.252 893.265,6208.352 	"/>
	<polygon fill="#FFFFFF" points="1134.075,5935.964 1129.506,5935.172 1126.265,5938.486 1125.605,5933.898 1121.454,5931.84 
		1125.614,5929.795 1126.288,5925.209 1129.518,5928.533 1134.088,5927.758 1131.924,5931.857 	"/>
	<circle fill="#C8C8C8" cx="1021.992" cy="6338.49" r="753.509"/>
	<circle fill="#F9F7F4" cx="986.604" cy="6295.978" r="711.003"/>
	<circle fill="#B5B6BA" cx="623.191" cy="5970.781" r="111.014"/>
	<path fill="#C8C8C8" d="M739.633,5975.506c0,59.197-44.938,107.182-100.37,107.182s-100.37-47.983-100.37-107.182
		c0-59.191,44.938-107.178,100.37-107.178C694.695,5868.328,739.633,5916.314,739.633,5975.506z"/>
	<circle fill="none" stroke="#E0E0E0" stroke-width="11" stroke-miterlimit="10" cx="623.191" cy="5970.783" r="114"/>
	<g>
		<circle fill="#B5B6BA" cx="1037.996" cy="6206.42" r="64.834"/>
		<ellipse fill="#C8C8C8" cx="1047.382" cy="6209.179" rx="58.618" ry="62.597"/>
		<circle fill="none" stroke="#E0E0E0" stroke-width="11" stroke-miterlimit="10" cx="1037.996" cy="6206.42" r="66.579"/>
	</g>
	<circle fill="#C8C8C8" stroke="#E0E0E0" stroke-width="11" stroke-miterlimit="10" cx="551.579" cy="6368.42" r="66.579"/>
	<circle fill="#B5B6BA" cx="906.174" cy="5770.825" r="42.043"/>
	<ellipse fill="#C8C8C8" cx="912.26" cy="5772.612" rx="38.014" ry="40.593"/>
	<circle fill="none" stroke="#E0E0E0" stroke-width="11" stroke-miterlimit="10" cx="906.174" cy="5770.825" r="43.174"/>
	<circle fill="#B5B6BA" cx="1492.473" cy="6299.473" r="87.131"/>
	<path fill="#C8C8C8" d="M1587.7,6299.343c0,46.464-35.271,84.124-78.777,84.124c-43.506,0-78.776-37.66-78.776-84.124
		c0-46.455,35.271-84.118,78.776-84.118C1552.43,6215.225,1587.7,6252.889,1587.7,6299.343z"/>
	<circle fill="none" stroke="#E0E0E0" stroke-width="11" stroke-miterlimit="10" cx="1492.474" cy="6299.473" r="89.474"/>
	<circle fill="#B5B6BA" cx="1146.586" cy="5852.944" r="87.13"/>
	<path fill="#C8C8C8" d="M1237.977,5856.65c0,46.465-35.27,84.125-78.776,84.125c-43.506,0-78.777-37.66-78.777-84.125
		c0-46.455,35.271-84.117,78.777-84.117C1202.707,5772.533,1237.977,5810.195,1237.977,5856.65z"/>
	<circle fill="none" stroke="#E0E0E0" stroke-width="11" stroke-miterlimit="10" cx="1146.586" cy="5852.945" r="89.474"/>
	<circle fill="#B5B6BA" cx="549.994" cy="6368.159" r="64.834"/>
	<ellipse fill="#C8C8C8" cx="559.38" cy="6370.919" rx="58.618" ry="62.597"/>
</g>
</svg>
