<?xml version="1.0" encoding="utf-8"?>
<!-- Generator: Adobe Illustrator 16.0.0, SVG Export Plug-In . SVG Version: 6.00 Build 0)  -->
<!DOCTYPE svg PUBLIC "-//W3C//DTD SVG 1.1//EN" "http://www.w3.org/Graphics/SVG/1.1/DTD/svg11.dtd">
<svg version="1.1" id="Layer_1" xmlns="http://www.w3.org/2000/svg" xmlns:xlink="http://www.w3.org/1999/xlink" x="0px" y="0px"
	 width="1980px" height="4730.283px" viewBox="-5498.199 0 1980 4730.283" enable-background="new -5498.199 0 1980 4730.283"
	 xml:space="preserve">
<linearGradient id="SVGID_1_" gradientUnits="userSpaceOnUse" x1="-5068.4473" y1="4848.3848" x2="-3971.7959" y2="6747.8408" gradientTransform="matrix(1 0 0 -1 0 6481)">
	<stop  offset="0.1667" style="stop-color:#FEDC6A"/>
	<stop  offset="0.3118" style="stop-color:#F47C20"/>
	<stop  offset="0.6022" style="stop-color:#ED2290"/>
	<stop  offset="0.9032" style="stop-color:#6A2365"/>
</linearGradient>
<rect x="-5515.04" y="-9" fill="url(#SVGID_1_)" width="1989.836" height="1383.775"/>
<polygon fill="#FDFDFE" points="-2711.348,599.771 -4951.678,1099.79 -5990.816,841.258 -6120.015,1360.549 -7095.204,1578.201 
	-6173.921,5706 -4252.022,5277.055 -3179.007,5544.014 -3045.6,5007.797 -1790.059,4727.572 "/>
<circle fill="#FFFFFF" cx="-3818.23" cy="926.34" r="3.711"/>
<path fill="none" d="M-5335.816,136.192c-6.191,6.324-16.494,6.334-22.807,0.016c-6.292-6.298-6.276-16.659,0.101-22.898
	c6.331-6.191,16.52-6.362,22.978,0.273C-5329.48,119.816-5329.498,130.059-5335.816,136.192z"/>
<path fill="none" d="M-5343.482,155.786c-2.075,2.063-5.424,2.07-7.478,0.018c-2.021-2.018-2.246-5.343-0.019-7.541
	c2.289-2.262,5.441-2.152,7.586-0.01C-5341.333,150.308-5341.265,153.563-5343.482,155.786z"/>
<g>
	<path fill="#FFFFFF" stroke="#FFFFFF" stroke-miterlimit="10" d="M-5093.862,689.815c-5.049-5.865-9.717-11.324-14.425-16.751
		c-2.512-2.896-5.14-5.696-7.604-8.633c-0.595-0.711-1.062-1.787-1.066-2.698c-0.067-11.079-0.035-22.16-0.032-33.239
		c-0.003-0.813-0.032-1.623-0.423-2.6c-0.299,0.595-0.632,1.175-0.895,1.783c-3.452,7.958-6.92,15.91-10.319,23.892
		c-0.646,1.521-1.442,2.038-3.214,2.023c-9.563-0.095-19.125,0.062-28.688,0.065c-6.835,0.004-13.665-0.136-20.501-0.148
		c-5.53-0.012-11.063,0.077-16.593,0.104c-2.322,0.013-4.65,0.079-6.96-0.087c-0.612-0.043-1.434-0.748-1.708-1.35
		c-3.325-7.422-6.562-14.886-9.825-22.337c-0.568-1.296-1.137-2.593-1.702-3.89c-0.239,0.017-0.478,0.032-0.717,0.049
		c0.108,4.027,0.274,8.052,0.303,12.08c0.062,7.855,0.064,15.71,0.023,23.566c-0.006,0.749-0.32,1.654-0.807,2.22
		c-7.124,8.324-14.3,16.604-21.471,24.89c-0.256,0.3-0.557,0.565-1.087,1.093c-0.836-4.184-1.623-8.112-2.404-12.045
		c-2.654-13.337-5.335-26.673-7.954-40.017c-2.028-10.333-3.974-20.684-5.985-31.023c-0.856-4.424-1.754-8.846-2.695-13.253
		c-0.224-1.058-0.096-1.661,0.889-2.359c7.745-5.511,15.413-11.127,23.141-16.661c1.533-1.097,2.174-2.164,1.728-4.223
		c-1.553-7.146-3.176-14.303-4.125-21.537c-1.39-10.631-2.43-21.318-3.231-32.009c-0.501-6.665-0.53-13.387-0.335-20.068
		c0.227-7.782,0.696-15.575,1.483-23.321c0.833-8.151,1.888-16.3,3.345-24.358c1.567-8.66,3.561-17.254,5.67-25.803
		c1.64-6.63,3.639-13.177,5.682-19.698c1.841-5.864,3.939-11.649,6.002-17.442c0.164-0.46,0.956-0.985,1.463-0.995
		c4.982-0.076,9.965-0.057,14.947-0.055c7.025,0.009,14.052,0.029,21.083,0.034c7.232,0.006,14.469,0.01,21.707-0.005
		c7.989-0.013,15.979-0.045,23.974-0.081c7.441-0.029,14.887-0.07,22.482-0.108c1.958,5.604,4.029,10.959,5.699,16.436
		c2.511,8.234,4.854,16.524,7.045,24.849c1.479,5.606,2.783,11.273,3.808,16.979c1.448,8.066,2.753,16.168,3.788,24.295
		c1.641,12.899,2.567,25.878,1.955,38.872c-0.571,12.077-1.34,24.173-2.759,36.173c-1.122,9.475-3.319,18.824-5.148,28.21
		c-0.265,1.364-0.225,2.156,1.021,3.049c7.838,5.622,15.577,11.382,23.402,17.02c1.314,0.95,1.608,1.891,1.271,3.453
		c-1.253,5.74-2.352,11.516-3.514,17.277c-1.413,7.031-2.845,14.055-4.248,21.087c-1.119,5.63-2.188,11.272-3.316,16.901
		c-1.393,6.959-2.841,13.91-4.233,20.871c-1.127,5.632-2.206,11.274-3.313,16.911
		C-5093.391,687.915-5093.579,688.619-5093.862,689.815z M-5133.548,502.371c18.854-18.299,18.903-48.858,0.81-67.455
		c-19.268-19.797-49.667-19.288-68.556-0.815c-19.026,18.614-19.073,49.526-0.3,68.318
		C-5182.76,521.269-5152.021,521.24-5133.548,502.371z M-5156.42,560.833c6.62-6.632,6.413-16.344,0.268-22.476
		c-6.397-6.391-15.804-6.718-22.633,0.03c-6.643,6.56-5.973,16.479,0.055,22.499
		C-5172.603,567.008-5162.613,566.988-5156.42,560.833z"/>
	<path fill="#FFFFFF" stroke="#FFFFFF" stroke-miterlimit="10" d="M-5117.448,377.688c-33.289-0.079-66.283-0.156-99.251-0.234
		c1.052-11.099,39.262-81.076,49.658-90.455C-5146.576,315.031-5130.544,345.384-5117.448,377.688z"/>
	<path fill="#FFFFFF" stroke="#FFFFFF" stroke-miterlimit="10" d="M-5137.106,665.975c0.714,2.47,1.541,4.914,2.13,7.415
		c2.238,9.557,3.474,19.242,3.085,29.064c-0.396,10.004-1.926,19.848-4.554,29.529c-2.715,10-6.418,19.614-11.156,28.805
		c-4.608,8.946-9.783,17.556-16.214,25.352c-1.334,1.619-2.607,3.29-4.242,5.363c-3.234-4.465-6.291-8.562-9.22-12.752
		c-5.378-7.696-9.866-15.91-13.744-24.455c-4.649-10.25-8.129-20.894-10.259-31.937c-1.655-8.596-2.427-17.282-2.167-26.07
		c0.248-8.317,1.387-16.475,3.502-24.505c0.514-1.959,1.163-3.884,1.958-5.839c2.25,34.351,11.729,66.365,30.191,95.803
		c18.432-29.453,28.044-61.394,30.174-95.706C-5137.453,666.02-5137.281,665.997-5137.106,665.975z"/>
</g>
<path fill="#FDFDFE" d="M-5206.273,819.075c0,0,12.047-34.615,24.113-47.852h28.775c0,0,23.48,29.406,29.082,51.967
	L-5206.273,819.075z"/>
<path fill="#FDFDFE" d="M-4792.336,1076.433c0-9.027-6.796-16.46-15.549-17.484c0.319-1.329,0.509-2.709,0.509-4.138
	c0-3.855-1.253-7.411-3.355-10.313c1.47-2.063,2.341-4.578,2.341-7.303c0-6.969-5.648-12.617-12.616-12.617
	c-0.728,0-1.436,0.075-2.128,0.193c3.748-4.437,6.017-10.161,6.017-16.424c0-14.077-11.413-25.49-25.491-25.49
	c-0.885,0-1.759,0.045-2.62,0.133c1.676-3.396,2.621-7.217,2.621-11.259c0-14.078-11.413-25.491-25.491-25.491
	c-0.084,0-0.167,0.005-0.251,0.006c0.163-1.163,0.253-2.349,0.253-3.556c0-14.078-11.413-25.491-25.491-25.491
	c-9.704,0-18.141,5.424-22.446,13.404c-2.425-1.259-5.173-1.98-8.094-1.98c-6.643,0-12.42,3.679-15.422,9.107
	c-2.025-2.211-4.819-3.707-7.968-4.037c0.839-2.524,1.299-5.222,1.299-8.026c0-14.071-11.408-25.479-25.479-25.479
	c-1.284,0-2.544,0.097-3.776,0.279c2.408-4.698,3.776-10.021,3.776-15.664c0-19.001-15.405-34.406-34.406-34.406
	c-12.559,0-23.542,6.731-29.549,16.78c-1.816-7.794-8.793-13.607-17.141-13.607c-4.474,0-8.544,1.681-11.651,4.428
	c-2.249-3.464-6.145-5.761-10.583-5.761c-1.362,0-2.671,0.222-3.899,0.622c0.204-1.428,0.316-2.885,0.316-4.37
	c0-16.798-13.618-30.416-30.416-30.416c-5.932,0-11.463,1.705-16.143,4.642l-49.033-17.382l-31.111,13.331
	c-3.33-2.095-7.258-3.325-11.482-3.325c-11.755,0-21.299,9.39-21.589,21.074c-2.989-1.97-6.563-3.125-10.411-3.125
	c-9.087,0-16.673,6.401-18.516,14.938c-2.308-2.969-5.905-4.888-9.957-4.888c-1.775,0-3.463,0.371-4.996,1.032
	c-5.498-4.625-12.59-7.416-20.337-7.416c-14.898,0-27.383,10.309-30.729,24.181c-7.241,2.665-12.417,9.604-12.417,17.77
	c0,2.957,0.697,5.744,1.905,8.237c-5.968,1-10.521,6.177-10.521,12.43c0,1.05,0.143,2.063,0.384,3.038
	c-0.845-0.053-1.693-0.089-2.551-0.089c-22.183,0-40.167,17.983-40.167,40.167c0,2.42,0.226,4.787,0.637,7.09
	c-0.976-0.111-1.965-0.175-2.97-0.175c-11.292,0-20.898,7.2-24.489,17.257c-1.777-0.384-3.62-0.591-5.511-0.591
	c-14.359,0-26,11.642-26,26v119.396l637.117,7.151c0.626,0.067,1.261,0.107,1.906,0.107c0.468,0,0.927-0.034,1.385-0.07l6.23,0.07
	l-0.275-1.617c6.06-2.786,10.275-8.894,10.275-16c0-3.536-1.052-6.821-2.845-9.58
	C-4795.924,1088.694-4792.336,1082.987-4792.336,1076.433z"/>
<polygon fill="#FFFFFF" points="-4642.635,106.114 -4647.204,105.323 -4650.445,108.637 -4651.104,104.048 -4655.256,101.99 
	-4651.096,99.945 -4650.422,95.358 -4647.192,98.684 -4642.622,97.908 -4644.786,102.008 "/>
<polygon fill="#FFFFFF" points="-3882.743,229.997 -3887.311,229.205 -3890.552,232.519 -3891.211,227.93 -3895.364,225.872 
	-3891.204,223.827 -3890.53,219.241 -3887.299,222.566 -3882.729,221.791 -3884.893,225.89 "/>
<polygon fill="#FFFFFF" points="-3821.955,700.932 -3826.523,700.141 -3829.764,703.455 -3830.423,698.866 -3834.576,696.808 
	-3830.416,694.763 -3829.742,690.176 -3826.511,693.501 -3821.941,692.726 -3824.105,696.826 "/>
<polygon fill="#FFFFFF" points="-3665.053,128.906 -3669.622,128.114 -3672.863,131.428 -3673.522,126.839 -3677.674,124.781 
	-3673.514,122.736 -3672.84,118.15 -3669.61,121.475 -3665.04,120.7 -3667.204,124.799 "/>
<polygon fill="#FFFFFF" points="-4206.635,106.114 -4211.204,105.323 -4214.445,108.637 -4215.104,104.048 -4219.256,101.99 
	-4215.096,99.945 -4214.422,95.358 -4211.192,98.684 -4206.622,97.908 -4208.786,102.008 "/>
<polygon fill="#FFFFFF" points="-3599.053,801.324 -3603.622,800.532 -3606.863,803.846 -3607.522,799.257 -3611.674,797.199 
	-3607.514,795.154 -3606.84,790.568 -3603.61,793.893 -3599.04,793.118 -3601.204,797.217 "/>
<polygon fill="#FFFFFF" points="-4234.635,926.746 -4239.204,925.954 -4242.445,929.268 -4243.104,924.679 -4247.256,922.621 
	-4243.096,920.576 -4242.422,915.99 -4239.192,919.315 -4234.622,918.54 -4236.786,922.639 "/>
<polygon fill="#FFFFFF" points="-4727.042,1020.337 -4731.611,1019.546 -4734.852,1022.86 -4735.511,1018.271 -4739.664,1016.213 
	-4735.503,1014.168 -4734.83,1009.582 -4731.6,1012.907 -4727.029,1012.131 -4729.193,1016.231 "/>
<polygon fill="#FFFFFF" points="-4935.444,316.292 -4940.012,315.5 -4943.253,318.814 -4943.913,314.226 -4948.065,312.167 
	-4943.905,310.123 -4943.231,305.536 -4940,308.861 -4935.43,308.086 -4937.594,312.186 "/>
<polygon fill="#FFFFFF" points="-4589.394,883.023 -4593.962,882.231 -4597.204,885.545 -4597.863,880.957 -4602.016,878.898 
	-4597.855,876.854 -4597.182,872.267 -4593.951,875.592 -4589.38,874.817 -4591.544,878.917 "/>
<polygon fill="#FFFFFF" points="-5390.394,309.653 -5394.962,308.861 -5398.204,312.175 -5398.863,307.586 -5403.016,305.528 
	-5398.854,303.483 -5398.182,298.897 -5394.951,302.222 -5390.38,301.447 -5392.544,305.546 "/>
<polygon fill="#FFFFFF" points="-5377.76,663.422 -5382.328,662.63 -5385.569,665.944 -5386.228,661.355 -5390.38,659.297 
	-5386.221,657.252 -5385.546,652.666 -5382.315,655.991 -5377.746,655.216 -5379.91,659.315 "/>
<polygon fill="#FFFFFF" points="-5448.727,56.431 -5453.295,55.639 -5456.537,58.953 -5457.196,54.364 -5461.349,52.306 
	-5457.188,50.261 -5456.515,45.675 -5453.284,49 -5448.713,48.225 -5450.877,52.324 "/>
<polygon fill="#FFFFFF" points="-5471.727,5524.885 -5476.295,5524.094 -5479.537,5527.407 -5480.196,5522.818 -5484.349,5520.76 
	-5480.188,5518.715 -5479.515,5514.129 -5476.284,5517.454 -5471.713,5516.68 -5473.877,5520.777 "/>
<linearGradient id="SVGID_2_" gradientUnits="userSpaceOnUse" x1="-5054.3062" y1="1494.4351" x2="-3954.2578" y2="3399.7749" gradientTransform="matrix(1 0 0 -1 0 6481)">
	<stop  offset="0.1237" style="stop-color:#6A2365"/>
	<stop  offset="0.3871" style="stop-color:#ED2290"/>
	<stop  offset="0.7043" style="stop-color:#F47C20"/>
	<stop  offset="0.8441" style="stop-color:#FEDC6A"/>
</linearGradient>
<rect x="-5498.199" y="3337.508" fill="url(#SVGID_2_)" stroke="#E0E0E0" stroke-width="1.0083" stroke-miterlimit="10" width="1987.834" height="1392.775"/>
<g>
	<path fill="none" d="M-5345.812,3836.93c-6.191,6.324-16.494,6.334-22.807,0.016c-6.292-6.299-6.276-16.659,0.101-22.898
		c6.331-6.19,16.52-6.36,22.978,0.273C-5339.476,3820.555-5339.493,3830.797-5345.812,3836.93z"/>
	<path fill="none" d="M-5353.478,3856.523c-2.075,2.063-5.424,2.07-7.478,0.018c-2.021-2.018-2.246-5.342-0.019-7.541
		c2.289-2.262,5.441-2.15,7.586-0.01C-5351.329,3851.045-5351.26,3854.301-5353.478,3856.523z"/>
	<polygon fill="#FFFFFF" points="-4900.578,3861.408 -4905.146,3860.617 -4908.386,3863.93 -4909.046,3859.342 -4913.199,3857.283 
		-4909.039,3855.238 -4908.365,3850.652 -4905.134,3853.977 -4900.564,3853.202 -4902.728,3857.303 	"/>
	<polygon fill="#FFFFFF" points="-3815.199,4064.283 -3819.767,4063.492 -3823.009,4066.805 -3823.667,4062.217 -3827.82,4060.158 
		-3823.66,4058.113 -3822.986,4053.527 -3819.755,4056.852 -3815.185,4056.076 -3817.349,4060.176 	"/>
	<polygon fill="#FFFFFF" points="-3783.642,3747.713 -3788.21,3746.922 -3791.452,3750.236 -3792.111,3745.646 -3796.263,3743.59 
		-3792.103,3741.545 -3791.429,3736.957 -3788.199,3740.283 -3783.628,3739.508 -3785.792,3743.607 	"/>
	<polygon fill="#FFFFFF" points="-4414.578,3726.408 -4419.146,3725.617 -4422.386,3728.93 -4423.046,3724.342 -4427.199,3722.283 
		-4423.039,3720.238 -4422.365,3715.652 -4419.134,3718.977 -4414.564,3718.202 -4416.728,3722.303 	"/>
	<polygon fill="#FFFFFF" points="-4112.199,3803.283 -4116.767,3802.492 -4120.009,3805.805 -4120.667,3801.217 -4124.82,3799.158 
		-4120.66,3797.113 -4119.986,3792.527 -4116.755,3795.852 -4112.185,3795.077 -4114.349,3799.178 	"/>
	<polygon fill="#FFFFFF" points="-3590.199,4451.283 -3594.767,4450.492 -3598.009,4453.807 -3598.667,4449.217 -3602.82,4447.16 
		-3598.66,4445.114 -3597.986,4440.527 -3594.755,4443.854 -3590.185,4443.078 -3592.349,4447.178 	"/>
	<polygon fill="#FFFFFF" points="-5184.389,4142.76 -5188.958,4141.969 -5192.199,4145.283 -5192.858,4140.693 -5197.011,4138.637 
		-5192.85,4136.592 -5192.177,4132.004 -5188.946,4135.33 -5184.375,4134.555 -5186.54,4138.654 	"/>
	<polygon fill="#FFFFFF" points="-5373.389,3953.762 -5377.958,3952.971 -5381.199,3956.283 -5381.858,3951.695 -5386.011,3949.637 
		-5381.85,3947.592 -5381.177,3943.006 -5377.946,3946.33 -5373.375,3945.555 -5375.54,3949.654 	"/>
	<polygon fill="#FFFFFF" points="-5349.631,4470.076 -5354.199,4469.283 -5357.44,4472.598 -5358.099,4468.01 -5362.252,4465.951 
		-5358.092,4463.906 -5357.417,4459.319 -5354.187,4462.645 -5349.617,4461.869 -5351.781,4465.969 	"/>
	<circle fill="#FFFFFF" cx="-3830.619" cy="4488.057" r="3.711"/>
	<polygon fill="#FFFFFF" points="-3834.343,4262.65 -3838.912,4261.858 -3842.154,4265.172 -3842.813,4260.584 -3846.964,4258.525 
		-3842.804,4256.48 -3842.13,4251.895 -3838.901,4255.219 -3834.33,4254.443 -3836.494,4258.543 	"/>
	<polygon fill="#FFFFFF" points="-4057.124,4168.247 -4061.693,4167.455 -4064.934,4170.77 -4065.593,4166.182 -4069.745,4164.123 
		-4065.584,4162.078 -4064.911,4157.492 -4061.681,4160.816 -4057.111,4160.041 -4059.275,4164.141 	"/>
	<polygon fill="#FFFFFF" points="-4247.025,4488.463 -4251.593,4487.672 -4254.833,4490.986 -4255.493,4486.396 -4259.646,4484.34 
		-4255.486,4482.295 -4254.812,4477.707 -4251.581,4481.033 -4247.011,4480.258 -4249.174,4484.357 	"/>
	<polygon fill="#FFFFFF" points="-4739.432,4582.055 -4744,4581.264 -4747.241,4584.578 -4747.901,4579.988 -4752.052,4577.932 
		-4747.893,4575.887 -4747.218,4571.299 -4743.989,4574.625 -4739.417,4573.85 -4741.582,4577.949 	"/>
	<polygon fill="#FFFFFF" points="-4792.105,4231.779 -4796.672,4230.987 -4799.914,4234.301 -4800.574,4229.713 -4804.726,4227.654 
		-4800.566,4225.609 -4799.892,4221.023 -4796.661,4224.348 -4792.09,4223.572 -4794.254,4227.672 	"/>
	<polygon fill="#FFFFFF" points="-4601.783,4444.74 -4606.352,4443.949 -4609.592,4447.264 -4610.251,4442.674 -4614.405,4440.617 
		-4610.244,4438.571 -4609.571,4433.984 -4606.339,4437.311 -4601.77,4436.535 -4603.934,4440.635 	"/>
	<polygon fill="#FFFFFF" points="-4363.124,4168.247 -4367.693,4167.455 -4370.934,4170.77 -4371.593,4166.182 -4375.745,4164.123 
		-4371.584,4162.078 -4370.911,4157.492 -4367.681,4160.816 -4363.111,4160.041 -4365.275,4164.141 	"/>
	<circle fill="#C8C8C8" cx="-4475.207" cy="4570.773" r="753.509"/>
	<circle fill="#F9F7F4" cx="-4510.595" cy="4528.261" r="711.003"/>
	<circle fill="#B5B6BA" cx="-4874.007" cy="4203.064" r="111.014"/>
	<path fill="#C8C8C8" d="M-4757.566,4207.789c0,59.197-44.938,107.182-100.37,107.182s-100.37-47.983-100.37-107.182
		c0-59.191,44.938-107.178,100.37-107.178C-4802.503,4100.611-4757.566,4148.598-4757.566,4207.789z"/>
	<circle fill="none" stroke="#E0E0E0" stroke-width="11" stroke-miterlimit="10" cx="-4874.007" cy="4203.066" r="114"/>
	<g>
		<circle fill="#B5B6BA" cx="-4459.203" cy="4438.703" r="64.834"/>
		<ellipse fill="#C8C8C8" cx="-4449.817" cy="4441.462" rx="58.618" ry="62.597"/>
		<circle fill="none" stroke="#E0E0E0" stroke-width="11" stroke-miterlimit="10" cx="-4459.203" cy="4438.703" r="66.579"/>
	</g>
	<circle fill="#C8C8C8" stroke="#E0E0E0" stroke-width="11" stroke-miterlimit="10" cx="-4945.62" cy="4600.703" r="66.579"/>
	<circle fill="#B5B6BA" cx="-4591.025" cy="4003.108" r="42.043"/>
	<ellipse fill="#C8C8C8" cx="-4584.939" cy="4004.896" rx="38.014" ry="40.593"/>
	<circle fill="none" stroke="#E0E0E0" stroke-width="11" stroke-miterlimit="10" cx="-4591.025" cy="4003.108" r="43.174"/>
	<circle fill="#B5B6BA" cx="-4004.726" cy="4531.756" r="87.131"/>
	<path fill="#C8C8C8" d="M-3909.499,4531.626c0,46.464-35.271,84.124-78.777,84.124c-43.506,0-78.776-37.66-78.776-84.124
		c0-46.455,35.271-84.118,78.776-84.118C-3944.769,4447.508-3909.499,4485.172-3909.499,4531.626z"/>
	<circle fill="none" stroke="#E0E0E0" stroke-width="11" stroke-miterlimit="10" cx="-4004.725" cy="4531.756" r="89.474"/>
	<circle fill="#B5B6BA" cx="-4350.613" cy="4085.228" r="87.13"/>
	<path fill="#C8C8C8" d="M-4259.222,4088.934c0,46.465-35.27,84.125-78.776,84.125c-43.506,0-78.777-37.66-78.777-84.125
		c0-46.455,35.271-84.117,78.777-84.117C-4294.492,4004.816-4259.222,4042.479-4259.222,4088.934z"/>
	<circle fill="none" stroke="#E0E0E0" stroke-width="11" stroke-miterlimit="10" cx="-4350.613" cy="4085.228" r="89.474"/>
	<circle fill="#B5B6BA" cx="-4947.205" cy="4600.442" r="64.834"/>
	<ellipse fill="#C8C8C8" cx="-4937.819" cy="4603.202" rx="58.618" ry="62.597"/>
</g>
<polygon fill="#FDFDFE" points="-3048.856,3245.498 -3144.646,3630.549 -4217.667,3363.588 -6139.566,3792.527 -6261.656,3245.498 
	"/>
</svg>
