<?xml version="1.0" encoding="utf-8"?>
<!-- Generator: Adobe Illustrator 16.0.0, SVG Export Plug-In . SVG Version: 6.00 Build 0)  -->
<!DOCTYPE svg PUBLIC "-//W3C//DTD SVG 1.1//EN" "http://www.w3.org/Graphics/SVG/1.1/DTD/svg11.dtd">
<svg version="1.1" id="Layer_1" xmlns="http://www.w3.org/2000/svg" xmlns:xlink="http://www.w3.org/1999/xlink" x="0px" y="0px"
	 width="99.958px" height="99.636px" viewBox="13.263 13.412 99.958 99.636" enable-background="new 13.263 13.412 99.958 99.636"
	 xml:space="preserve">
<g>
	
		<linearGradient id="SVGID_1_" gradientUnits="userSpaceOnUse" x1="-205.751" y1="114.3208" x2="-155.7641" y2="200.9005" gradientTransform="matrix(1 0 0 -1 244 221.001)">
		<stop  offset="0" style="stop-color:#ED2290"/>
		<stop  offset="1" style="stop-color:#6A2365"/>
	</linearGradient>
	<circle fill="url(#SVGID_1_)" cx="63.242" cy="63.391" r="49.979"/>
	<g>
		<path fill="#FFFFFF" d="M72.529,67.836c1.298,1.25,2.522,2.433,3.854,3.717c2.171-1.271,3.863-0.271,5.534,1.453
			c3.859,3.988,7.831,7.867,11.751,11.795c2.073,2.078,2.06,3.742-0.035,5.846c-1.171,1.178-2.333,2.365-3.524,3.52
			c-1.661,1.607-3.489,1.638-5.143,0.002c-4.349-4.305-8.664-8.643-12.984-12.977c-1.19-1.191-1.494-2.568-0.815-4.156
			c0.116-0.271,0.108-0.764-0.063-0.963c-1.045-1.217-2.153-2.379-3.197-3.51c-12.628,8.578-26.219,3.665-32.441-5.059
			c-6.413-8.988-5.41-21.689,2.549-29.491c8.23-8.068,20.965-8.861,30.087-1.8C77.008,43.108,80.338,56.559,72.529,67.836z
			 M53.914,70.311c8.957,0.018,16.104-7.037,16.156-15.948c0.051-8.97-7.119-16.228-16.055-16.249
			c-8.8-0.021-16.072,7.219-16.145,16.072C37.799,62.988,45.066,70.295,53.914,70.311z"/>
		<path fill="#FFFFFF" d="M50.768,54.323c0.619,2.361,1.222,4.659,1.824,6.956c0.174-0.027,0.349-0.052,0.523-0.078
			c-0.194-1.654-0.437-3.309-0.553-4.971c-0.035-0.486,0.179-1.344,0.463-1.43c0.605-0.188,1.402-0.132,1.976,0.135
			c0.266,0.122,0.426,1.091,0.233,1.475c-0.813,1.625-0.091,3.178-0.211,4.756c0.115,0.009,0.231,0.018,0.348,0.027
			c0.585-2.259,1.171-4.518,1.752-6.762c3.275,0.013,6.881,3.977,6.225,7.098c-0.201,0.958-1.331,1.891-2.256,2.498
			c-4.784,3.142-11.34,2.729-15.714-0.965c-0.524-0.443-0.972-1.359-0.931-2.025C44.646,57.725,47.251,54.988,50.768,54.323z"/>
		<path fill="#FFFFFF" d="M59.565,48.381C59.563,51.484,57.039,54.032,54,54c-3.086-0.036-5.613-2.561-5.62-5.614
			c-0.007-3.077,2.499-5.567,5.61-5.576C57.13,42.801,59.566,45.236,59.565,48.381z"/>
	</g>
</g>
</svg>
