<?xml version="1.0" encoding="utf-8"?>
<!-- Generator: Adobe Illustrator 16.0.0, SVG Export Plug-In . SVG Version: 6.00 Build 0)  -->
<!DOCTYPE svg PUBLIC "-//W3C//DTD SVG 1.1//EN" "http://www.w3.org/Graphics/SVG/1.1/DTD/svg11.dtd">
<svg version="1.1" id="Layer_1" xmlns="http://www.w3.org/2000/svg" xmlns:xlink="http://www.w3.org/1999/xlink" x="0px" y="0px"
	 width="189px" height="189px" viewBox="45 27 189 189" enable-background="new 45 27 189 189" xml:space="preserve">
<linearGradient id="SVGID_1_" gradientUnits="userSpaceOnUse" x1="-151.7578" y1="134.6475" x2="-57.2417" y2="298.3542" gradientTransform="matrix(1 0 0 -1 244 338)">
	<stop  offset="0" style="stop-color:#ED2290"/>
	<stop  offset="1" style="stop-color:#6A2365"/>
</linearGradient>
<circle fill="url(#SVGID_1_)" cx="139.5" cy="121.5" r="94.5"/>
<g>
	<circle fill="#FFFFFF" cx="182.699" cy="113.819" r="14.4"/>
	<path fill="#FFFFFF" d="M165.557,146.186c1.26,3.688,2.006,7.701,2.131,11.916h-4.791
		C162.896,153.762,163.861,149.686,165.557,146.186z"/>
	<path fill="#FFFFFF" d="M202.5,158.102h-28.031c-0.141-6.72-1.586-13.051-4.029-18.666c3.377-3.205,7.64-5.103,12.26-5.103
		C193.633,134.333,202.5,144.973,202.5,158.102z"/>
</g>
<g>
	<path fill="#FFFFFF" d="M81.9,113.821c0-7.954,6.447-14.403,14.4-14.403c7.952,0,14.398,6.449,14.398,14.403
		c0,7.95-6.446,14.397-14.398,14.397C88.348,128.219,81.9,121.771,81.9,113.821z"/>
	<path fill="#FFFFFF" d="M96.303,134.333c4.107,0,7.934,1.509,11.107,4.091c-2.723,5.85-4.341,12.555-4.48,19.678H76.5
		C76.5,144.973,85.367,134.333,96.303,134.333z"/>
	<path fill="#FFFFFF" d="M116.105,158.102h-5.988c0.139-4.744,1.057-9.225,2.627-13.283
		C114.861,148.611,116.105,153.186,116.105,158.102z"/>
</g>
<circle fill="#FFFFFF" cx="138.9" cy="102.3" r="18.6"/>
<path fill="#FFFFFF" d="M167.703,159.3H110.1c0-0.403,0-0.81,0.017-1.198c0.139-4.744,1.057-9.225,2.627-13.283
	c4.559-11.854,14.561-20.084,26.15-20.084c12.039,0,22.353,8.867,26.662,21.451c1.26,3.688,2.006,7.701,2.131,11.916
	C167.703,158.49,167.703,158.896,167.703,159.3z"/>
</svg>
