<?xml version="1.0" encoding="utf-8"?>
<!-- Generator: Adobe Illustrator 16.0.0, SVG Export Plug-In . SVG Version: 6.00 Build 0)  -->
<!DOCTYPE svg PUBLIC "-//W3C//DTD SVG 1.1//EN" "http://www.w3.org/Graphics/SVG/1.1/DTD/svg11.dtd">
<svg version="1.1" id="Layer_1" xmlns="http://www.w3.org/2000/svg" xmlns:xlink="http://www.w3.org/1999/xlink" x="0px" y="0px"
	 width="1980px" height="4730.283px" viewBox="0 0 1980 4730.283" enable-background="new 0 0 1980 4730.283" xml:space="preserve">
<linearGradient id="SVGID_1_" gradientUnits="userSpaceOnUse" x1="442.8438" y1="-4056.3843" x2="1539.4949" y2="-5955.8398" gradientTransform="matrix(1 0 0 1 0 5689)">
	<stop  offset="0.1667" style="stop-color:#FEDC6A"/>
	<stop  offset="0.3118" style="stop-color:#F47C20"/>
	<stop  offset="0.6022" style="stop-color:#ED2290"/>
	<stop  offset="0.9032" style="stop-color:#6A2365"/>
</linearGradient>
<rect x="-3.749" y="-9" fill="url(#SVGID_1_)" width="1989.836" height="1383.775"/>
<polygon fill="#FDFDFE" points="2799.943,599.771 559.613,1099.79 -479.525,841.258 -608.724,1360.549 -1583.913,1578.201 
	-662.63,5706 1259.27,5277.055 2332.284,5544.014 2465.691,5007.797 3721.232,4727.572 "/>
<circle fill="#FFFFFF" cx="1693.061" cy="926.34" r="3.711"/>
<path fill="none" d="M175.475,136.192c-6.191,6.324-16.494,6.334-22.807,0.016c-6.292-6.298-6.276-16.659,0.101-22.898
	c6.331-6.191,16.52-6.362,22.978,0.273C181.811,119.816,181.793,130.059,175.475,136.192z"/>
<path fill="none" d="M167.809,155.786c-2.075,2.063-5.424,2.07-7.478,0.018c-2.021-2.018-2.246-5.343-0.019-7.541
	c2.289-2.262,5.441-2.152,7.586-0.01C169.958,150.308,170.026,153.563,167.809,155.786z"/>
<polygon fill="#FFFFFF" points="1628.548,229.997 1623.98,229.205 1620.739,232.519 1620.08,227.93 1615.927,225.872 
	1620.087,223.827 1620.761,219.241 1623.992,222.566 1628.563,221.791 1626.398,225.89 "/>
<polygon fill="#FFFFFF" points="1689.336,700.932 1684.768,700.141 1681.527,703.455 1680.868,698.866 1676.715,696.808 
	1680.875,694.763 1681.549,690.176 1684.78,693.501 1689.35,692.726 1687.186,696.826 "/>
<polygon fill="#FFFFFF" points="1846.238,128.906 1841.669,128.114 1838.428,131.428 1837.77,126.839 1833.617,124.781 
	1837.777,122.736 1838.451,118.15 1841.681,121.475 1846.251,120.7 1844.087,124.799 "/>
<polygon fill="#FFFFFF" points="1304.656,106.114 1300.087,105.323 1296.846,108.637 1296.188,104.048 1292.035,101.99 
	1296.195,99.945 1296.869,95.358 1300.1,98.684 1304.669,97.908 1302.505,102.008 "/>
<polygon fill="#FFFFFF" points="1912.238,801.324 1907.669,800.532 1904.428,803.846 1903.77,799.257 1899.617,797.199 
	1903.777,795.154 1904.451,790.568 1907.681,793.893 1912.251,793.118 1910.087,797.217 "/>
<polygon fill="#FFFFFF" points="1276.656,926.746 1272.087,925.954 1268.846,929.268 1268.188,924.679 1264.035,922.621 
	1268.195,920.576 1268.869,915.99 1272.1,919.315 1276.669,918.54 1274.505,922.639 "/>
<polygon fill="#FFFFFF" points="784.249,1020.337 779.68,1019.546 776.439,1022.86 775.78,1018.271 771.627,1016.213 
	775.788,1014.168 776.461,1009.582 779.691,1012.907 784.262,1012.131 782.098,1016.231 "/>
<polygon fill="#FFFFFF" points="575.847,316.292 571.279,315.5 568.038,318.814 567.378,314.226 563.226,312.167 567.386,310.123 
	568.06,305.536 571.291,308.861 575.861,308.086 573.697,312.186 "/>
<polygon fill="#FFFFFF" points="921.897,883.023 917.329,882.231 914.087,885.545 913.428,880.957 909.275,878.898 913.436,876.854 
	914.109,872.267 917.34,875.592 921.911,874.817 919.747,878.917 "/>
<polygon fill="#FFFFFF" points="120.897,309.653 116.329,308.861 113.087,312.175 112.428,307.586 108.275,305.528 112.437,303.483 
	113.109,298.897 116.34,302.222 120.911,301.447 118.747,305.546 "/>
<polygon fill="#FFFFFF" points="133.531,663.422 128.963,662.63 125.722,665.944 125.063,661.355 120.911,659.297 125.07,657.252 
	125.745,652.666 128.976,655.991 133.545,655.216 131.381,659.315 "/>
<polygon fill="#FFFFFF" points="62.564,56.431 57.996,55.639 54.754,58.953 54.095,54.364 49.942,52.306 54.103,50.261 
	54.776,45.675 58.007,49 62.578,48.225 60.414,52.324 "/>
<polygon fill="#FFFFFF" points="-5471.727,5524.885 -5476.295,5524.094 -5479.537,5527.407 -5480.196,5522.818 -5484.349,5520.76 
	-5480.188,5518.715 -5479.515,5514.129 -5476.284,5517.454 -5471.713,5516.68 -5473.877,5520.777 "/>
<linearGradient id="SVGID_2_" gradientUnits="userSpaceOnUse" x1="441.9854" y1="-2688.709" x2="1542.033" y2="-4594.0479" gradientTransform="matrix(1 0 0 1 0 5689)">
	<stop  offset="0.1237" style="stop-color:#6A2365"/>
	<stop  offset="0.3871" style="stop-color:#ED2290"/>
	<stop  offset="0.7043" style="stop-color:#F47C20"/>
	<stop  offset="0.8441" style="stop-color:#FEDC6A"/>
</linearGradient>
<rect x="-1.908" y="1351.234" fill="url(#SVGID_2_)" stroke="#E0E0E0" stroke-width="1.0083" stroke-miterlimit="10" width="1987.834" height="1392.775"/>
<g>
	<path fill="none" d="M150.479,1850.656c-6.191,6.324-16.494,6.334-22.807,0.017c-6.292-6.3-6.276-16.659,0.101-22.898
		c6.331-6.189,16.52-6.36,22.978,0.273C156.815,1834.281,156.798,1844.523,150.479,1850.656z"/>
	<path fill="none" d="M142.813,1870.25c-2.075,2.063-5.424,2.069-7.478,0.018c-2.021-2.018-2.246-5.342-0.019-7.541
		c2.289-2.262,5.441-2.15,7.586-0.01C144.962,1864.771,145.031,1868.027,142.813,1870.25z"/>
	<polygon fill="#FFFFFF" points="595.713,1875.134 591.145,1874.343 587.905,1877.656 587.245,1873.068 583.092,1871.009 
		587.252,1868.964 587.926,1864.378 591.157,1867.703 595.727,1866.928 593.563,1871.029 	"/>
	<polygon fill="#FFFFFF" points="1681.092,2078.009 1676.523,2077.218 1673.282,2080.531 1672.624,2075.943 1668.471,2073.884 
		1672.631,2071.839 1673.305,2067.253 1676.536,2070.578 1681.105,2069.802 1678.941,2073.902 	"/>
	<polygon fill="#FFFFFF" points="1712.648,1761.439 1708.081,1760.648 1704.839,1763.962 1704.18,1759.373 1700.028,1757.316 
		1704.188,1755.271 1704.862,1750.683 1708.092,1754.009 1712.663,1753.234 1710.499,1757.333 	"/>
	<polygon fill="#FFFFFF" points="1081.713,1740.134 1077.145,1739.343 1073.904,1742.656 1073.245,1738.068 1069.092,1736.009 
		1073.252,1733.964 1073.926,1729.378 1077.157,1732.703 1081.727,1731.928 1079.563,1736.029 	"/>
	<polygon fill="#FFFFFF" points="1384.092,1817.009 1379.523,1816.218 1376.282,1819.531 1375.624,1814.943 1371.471,1812.884 
		1375.631,1810.839 1376.305,1806.253 1379.536,1809.578 1384.105,1808.803 1381.941,1812.904 	"/>
	<polygon fill="#FFFFFF" points="1906.092,2465.009 1901.523,2464.218 1898.282,2467.532 1897.624,2462.942 1893.471,2460.886 
		1897.631,2458.839 1898.305,2454.253 1901.536,2457.579 1906.105,2456.804 1903.941,2460.903 	"/>
	<polygon fill="#FFFFFF" points="311.902,2156.486 307.333,2155.695 304.092,2159.009 303.433,2154.419 299.28,2152.363 
		303.441,2150.318 304.114,2145.73 307.345,2149.056 311.916,2148.281 309.751,2152.38 	"/>
	<polygon fill="#FFFFFF" points="122.902,1967.488 118.333,1966.697 115.092,1970.009 114.433,1965.421 110.28,1963.363 
		114.441,1961.318 115.114,1956.732 118.345,1960.056 122.916,1959.281 120.751,1963.38 	"/>
	<polygon fill="#FFFFFF" points="146.66,2483.802 142.092,2483.009 138.851,2486.323 138.192,2481.735 134.039,2479.677 
		138.199,2477.632 138.874,2473.044 142.104,2476.37 146.674,2475.595 144.51,2479.694 	"/>
	<circle fill="#FFFFFF" cx="1665.672" cy="2501.782" r="3.711"/>
	<polygon fill="#FFFFFF" points="1661.948,2276.376 1657.379,2275.583 1654.137,2278.898 1653.479,2274.31 1649.327,2272.251 
		1653.487,2270.207 1654.161,2265.621 1657.391,2268.945 1661.961,2268.169 1659.797,2272.269 	"/>
	<polygon fill="#FFFFFF" points="1439.167,2181.973 1434.598,2181.181 1431.357,2184.496 1430.698,2179.908 1426.546,2177.849 
		1430.707,2175.804 1431.38,2171.218 1434.61,2174.542 1439.18,2173.767 1437.016,2177.867 	"/>
	<polygon fill="#FFFFFF" points="1249.266,2502.188 1244.698,2501.397 1241.458,2504.712 1240.798,2500.122 1236.645,2498.065 
		1240.805,2496.021 1241.479,2491.433 1244.71,2494.759 1249.279,2493.983 1247.117,2498.083 	"/>
	<polygon fill="#FFFFFF" points="756.859,2595.78 752.291,2594.989 749.05,2598.304 748.39,2593.714 744.239,2591.657 
		748.398,2589.612 749.073,2585.024 752.302,2588.351 756.874,2587.575 754.709,2591.675 	"/>
	<polygon fill="#FFFFFF" points="704.186,2245.505 699.619,2244.712 696.377,2248.027 695.717,2243.439 691.565,2241.38 
		695.725,2239.335 696.399,2234.75 699.63,2238.074 704.201,2237.298 702.037,2241.398 	"/>
	<polygon fill="#FFFFFF" points="894.508,2458.466 889.939,2457.675 886.699,2460.989 886.04,2456.399 881.886,2454.343 
		886.047,2452.296 886.72,2447.71 889.952,2451.036 894.521,2450.261 892.357,2454.36 	"/>
	<polygon fill="#FFFFFF" points="1133.167,2181.973 1128.598,2181.181 1125.357,2184.496 1124.698,2179.908 1120.546,2177.849 
		1124.707,2175.804 1125.38,2171.218 1128.609,2174.542 1133.18,2173.767 1131.016,2177.867 	"/>
	<circle fill="#C8C8C8" cx="1021.084" cy="2584.498" r="753.509"/>
	<circle fill="#F9F7F4" cx="985.695" cy="2541.987" r="711.003"/>
	<circle fill="#B5B6BA" cx="622.284" cy="2216.79" r="111.014"/>
	<path fill="#C8C8C8" d="M738.725,2221.515c0,59.197-44.938,107.182-100.37,107.182s-100.37-47.982-100.37-107.182
		c0-59.191,44.938-107.178,100.37-107.178C693.788,2114.337,738.725,2162.324,738.725,2221.515z"/>
	<circle fill="none" stroke="#E0E0E0" stroke-width="11" stroke-miterlimit="10" cx="622.284" cy="2216.792" r="114"/>
	<g>
		<circle fill="#B5B6BA" cx="1037.088" cy="2452.429" r="64.834"/>
		<ellipse fill="#C8C8C8" cx="1046.475" cy="2455.188" rx="58.617" ry="62.597"/>
		<circle fill="none" stroke="#E0E0E0" stroke-width="11" stroke-miterlimit="10" cx="1037.088" cy="2452.43" r="66.579"/>
	</g>
	<circle fill="#C8C8C8" stroke="#E0E0E0" stroke-width="11" stroke-miterlimit="10" cx="550.671" cy="2614.43" r="66.579"/>
	<circle fill="#B5B6BA" cx="905.266" cy="2016.833" r="42.043"/>
	<ellipse fill="#C8C8C8" cx="911.352" cy="2018.622" rx="38.014" ry="40.593"/>
	<circle fill="none" stroke="#E0E0E0" stroke-width="11" stroke-miterlimit="10" cx="905.266" cy="2016.834" r="43.174"/>
	<circle fill="#B5B6BA" cx="1491.564" cy="2545.481" r="87.131"/>
	<path fill="#C8C8C8" d="M1586.792,2545.353c0,46.463-35.271,84.123-78.777,84.123c-43.506,0-78.776-37.66-78.776-84.123
		c0-46.455,35.271-84.119,78.776-84.119C1551.521,2461.233,1586.792,2498.897,1586.792,2545.353z"/>
	<circle fill="none" stroke="#E0E0E0" stroke-width="11" stroke-miterlimit="10" cx="1491.566" cy="2545.481" r="89.475"/>
	<circle fill="#B5B6BA" cx="1145.678" cy="2098.954" r="87.13"/>
	<path fill="#C8C8C8" d="M1237.068,2102.66c0,46.465-35.27,84.125-78.775,84.125s-78.777-37.66-78.777-84.125
		c0-46.455,35.271-84.116,78.777-84.116C1201.799,2018.542,1237.068,2056.205,1237.068,2102.66z"/>
	<circle fill="none" stroke="#E0E0E0" stroke-width="11" stroke-miterlimit="10" cx="1145.678" cy="2098.954" r="89.474"/>
	<circle fill="#B5B6BA" cx="549.086" cy="2614.167" r="64.834"/>
	<ellipse fill="#C8C8C8" cx="558.472" cy="2616.928" rx="58.618" ry="62.597"/>
</g>
<polygon fill="#FDFDFE" points="2504.312,1259.224 2408.521,1644.275 1335.5,1377.314 -586.399,1806.253 -708.489,1259.224 "/>
</svg>
