<?xml version="1.0" encoding="utf-8"?>
<!-- Generator: Adobe Illustrator 16.0.0, SVG Export Plug-In . SVG Version: 6.00 Build 0)  -->
<!DOCTYPE svg PUBLIC "-//W3C//DTD SVG 1.1//EN" "http://www.w3.org/Graphics/SVG/1.1/DTD/svg11.dtd">
<svg version="1.1" id="Layer_1" xmlns="http://www.w3.org/2000/svg" xmlns:xlink="http://www.w3.org/1999/xlink" x="0px" y="0px"
	 width="99.958px" height="99.958px" viewBox="18.919 10.147 99.958 99.958" enable-background="new 18.919 10.147 99.958 99.958"
	 xml:space="preserve">
<g>
	
		<linearGradient id="SVGID_1_" gradientUnits="userSpaceOnUse" x1="-200.0972" y1="126.583" x2="-150.1094" y2="213.1644" gradientTransform="matrix(1 0 0 -1 244 230)">
		<stop  offset="0" style="stop-color:#ED2290"/>
		<stop  offset="1" style="stop-color:#6A2365"/>
	</linearGradient>
	<circle fill="url(#SVGID_1_)" cx="68.898" cy="60.126" r="49.979"/>
	<g>
		<path fill="#FFFFFF" d="M87.102,88.42H49.385c0-0.265,0-0.529,0.01-0.784c0.092-3.105,0.693-6.04,1.721-8.698
			c2.984-7.761,9.535-13.148,17.123-13.148c7.885,0,14.637,5.805,17.459,14.046c0.823,2.413,1.313,5.042,1.395,7.802
			C87.102,87.891,87.102,88.155,87.102,88.42z"/>
		<g>
			<path fill="#FFFFFF" d="M69.443,63.406c-1.139,0.058-2.199-0.074-3.238-0.339c-3.721-0.951-6.518-3.117-8.383-6.474
				c-0.137-0.245-0.211-0.557-0.215-0.839c-0.02-1.517-0.018-3.035-0.006-4.551c0.008-1.063-0.33-1.994-0.962-2.841
				c-0.103-0.136-0.157-0.368-0.126-0.536c1.043-5.367,5.549-9.588,10.971-10.291c6.85-0.889,13.018,3.47,14.479,10.244
				c0.042,0.196-0.037,0.473-0.158,0.643c-0.558,0.784-0.902,1.633-0.908,2.603c-0.006,1.601-0.002,3.203-0.004,4.807
				c0,0.774-0.694,1.835-1.43,2.058c-0.93,0.281-1.882,0.501-2.828,0.727c-0.131,0.031-0.313-0.018-0.428-0.094
				c-0.664-0.438-1.377-0.624-2.174-0.581c-0.693,0.036-1.389-0.003-2.084,0.013c-1.305,0.032-2.279,0.646-2.881,1.785
				c-0.605,1.146-0.517,2.29,0.188,3.381C69.309,63.198,69.359,63.276,69.443,63.406z"/>
			<path fill="#FFFFFF" d="M50.085,54.044c0-0.908,0.013-1.815-0.003-2.723c-0.021-1.163,0.448-2.046,1.434-2.669
				c0.113-0.07,0.199-0.261,0.209-0.401c0.27-3.492,1.398-6.669,3.535-9.451c2.91-3.787,6.723-6.129,11.469-6.777
				c5.947-0.813,11.064,0.984,15.234,5.291c2.813,2.906,4.375,6.433,4.74,10.473c0.041,0.453,0.113,0.813,0.572,1.107
				c0.77,0.498,1.125,1.293,1.127,2.218c0.008,1.942,0.02,3.886,0,5.827c-0.021,2.21-2.271,3.594-4.262,2.621
				c-0.259-0.127-0.412-0.109-0.64,0.046c-1.836,1.256-3.899,1.913-6.069,2.277c-0.447,0.076-0.9,0.103-1.347,0.175
				c-0.123,0.021-0.265,0.102-0.338,0.199c-0.399,0.526-0.916,0.768-1.578,0.748C73.447,62.984,72.723,63.009,72,63
				c-0.926-0.014-1.664-0.709-1.725-1.606c-0.061-0.903,0.561-1.717,1.483-1.819c0.673-0.074,1.357-0.021,2.037-0.04
				c0.748-0.021,1.445,0.063,1.943,0.717c0.045,0.059,0.184,0.076,0.272,0.065c2.273-0.267,4.445-0.84,6.396-2.098
				c0.188-0.122,0.266-0.228,0.198-0.473c-0.082-0.31-0.114-0.642-0.115-0.964c-0.012-1.814,0.004-3.631-0.01-5.445
				c-0.008-1.14,0.429-2.024,1.388-2.657c0.114-0.075,0.192-0.302,0.182-0.45c-0.172-2.555-0.959-4.918-2.396-7.031
				c-2.686-3.947-6.405-6.227-11.182-6.632c-7.608-0.647-14.344,4.491-15.835,12.021c-0.076,0.389-0.123,0.783-0.182,1.174
				c-0.07,0.477-0.047,0.842,0.461,1.166c0.678,0.435,1.057,1.157,1.064,1.984c0.023,2.098,0.051,4.198-0.006,6.296
				c-0.045,1.584-1.404,2.681-3.111,2.638c-1.506-0.038-2.742-1.266-2.773-2.779c-0.02-1.008-0.002-2.015-0.002-3.021
				C50.088,54.044,50.086,54.044,50.085,54.044z"/>
		</g>
	</g>
</g>
</svg>
