<?xml version="1.0" encoding="utf-8"?>
<!-- Generator: Adobe Illustrator 16.0.0, SVG Export Plug-In . SVG Version: 6.00 Build 0)  -->
<!DOCTYPE svg PUBLIC "-//W3C//DTD SVG 1.1//EN" "http://www.w3.org/Graphics/SVG/1.1/DTD/svg11.dtd">
<svg version="1.1" id="Layer_1" xmlns="http://www.w3.org/2000/svg" xmlns:xlink="http://www.w3.org/1999/xlink" x="0px" y="0px"
	 width="189px" height="189px" viewBox="36 36 189 189" enable-background="new 36 36 189 189" xml:space="preserve">
<linearGradient id="SVGID_1_" gradientUnits="userSpaceOnUse" x1="-160.7578" y1="161.6465" x2="-66.2417" y2="325.3532" gradientTransform="matrix(1 0 0 -1 244 374)">
	<stop  offset="0" style="stop-color:#ED2290"/>
	<stop  offset="1" style="stop-color:#6A2365"/>
</linearGradient>
<circle fill="url(#SVGID_1_)" cx="130.5" cy="130.5" r="94.5"/>
<path fill="#FFFFFF" d="M144.218,168.318h-6.859v-48.011c0-3.792-3.07-6.859-6.858-6.859h-13.718c-3.787,0-6.858,3.067-6.858,6.859
	c0,3.791,3.071,6.665,6.858,6.665h6.859v41.153h-6.859c-3.787,0-6.858,3.066-6.858,6.859c0,3.791,3.071,6.857,6.858,6.857h27.436
	c3.787,0,6.859-3.066,6.859-6.857C151.077,171.191,148.012,168.318,144.218,168.318z M130.5,99.73
	c5.683,0,10.288-4.605,10.288-10.288c0-5.682-4.607-10.286-10.288-10.286s-10.288,4.606-10.288,10.288
	C120.212,95.127,124.817,99.73,130.5,99.73z"/>
</svg>
