<?xml version="1.0" encoding="utf-8"?>
<!-- Generator: Adobe Illustrator 16.0.0, SVG Export Plug-In . SVG Version: 6.00 Build 0)  -->
<!DOCTYPE svg PUBLIC "-//W3C//DTD SVG 1.1//EN" "http://www.w3.org/Graphics/SVG/1.1/DTD/svg11.dtd">
<svg version="1.1" id="Layer_1" xmlns="http://www.w3.org/2000/svg" xmlns:xlink="http://www.w3.org/1999/xlink" x="0px" y="0px"
	 width="189px" height="189px" viewBox="92 27 189 189" enable-background="new 92 27 189 189" xml:space="preserve">
<g>
	
		<linearGradient id="SVGID_1_" gradientUnits="userSpaceOnUse" x1="-104.7578" y1="134.6475" x2="-10.2417" y2="298.3542" gradientTransform="matrix(1 0 0 -1 244 338)">
		<stop  offset="0" style="stop-color:#ED2290"/>
		<stop  offset="1" style="stop-color:#6A2365"/>
	</linearGradient>
	<circle fill="url(#SVGID_1_)" cx="186.5" cy="121.5" r="94.5"/>
	<path fill="#FFFFFF" d="M250.23,96.455l-59.441-21.277c-2.887-1.033-6.034-1.033-8.921,0l-59.277,21.277
		c-2.021,0.736-3.375,2.672-3.375,4.857c0,2.188,1.354,4.133,3.375,4.855l12.619,4.523c-2.5,3.32-4.259,7.182-5.161,11.344
		c-2.412,1.018-4.104,3.418-4.104,6.19c0,2.092,1.012,3.887,2.511,5.123l-5.222,31.328c-0.342,2.047,1.239,3.92,3.318,3.92h12.242
		c2.078,0,3.66-1.867,3.317-3.918l-5.221-31.33c1.498-1.233,2.51-3.209,2.51-5.123c0-2.162-1.088-4.002-2.674-5.233
		c0.894-3.732,2.707-7.111,5.244-9.889l40.075,14.35c2.888,1.028,6.034,1.028,8.921,0l59.442-21.281
		c2.028-0.738,3.374-2.672,3.374-4.859C253.784,99.127,252.438,97.191,250.23,96.455z M193.039,133.777
		c-1.977,0.776-4.247,1.178-6.539,1.178c-2.296,0-4.561-0.393-6.729-1.168l-30.53-10.922l-3.111,30.025
		c0,8.684,17.894,15.707,40.37,15.707c22.1,0,40.37-7.023,40.37-15.701l-3.106-30.045L193.039,133.777z"/>
</g>
</svg>
