<?xml version="1.0" encoding="utf-8"?>
<!-- Generator: Adobe Illustrator 16.0.0, SVG Export Plug-In . SVG Version: 6.00 Build 0)  -->
<!DOCTYPE svg PUBLIC "-//W3C//DTD SVG 1.1//EN" "http://www.w3.org/Graphics/SVG/1.1/DTD/svg11.dtd">
<svg version="1.1" id="Layer_1" xmlns="http://www.w3.org/2000/svg" xmlns:xlink="http://www.w3.org/1999/xlink" x="0px" y="0px"
	 width="189px" height="189px" viewBox="0 0 189 189" enable-background="new 0 0 189 189" xml:space="preserve">
<g>
	<linearGradient id="SVGID_1_" gradientUnits="userSpaceOnUse" x1="47.2412" y1="176.3535" x2="141.7573" y2="12.6468">
		<stop  offset="0" style="stop-color:#ED2290"/>
		<stop  offset="1" style="stop-color:#6A2365"/>
	</linearGradient>
	<circle fill="url(#SVGID_1_)" cx="94.5" cy="94.5" r="94.5"/>
	<path fill="#FFFFFF" d="M139.339,117.514l-4.084,17.709c-0.574,2.504-2.775,4.254-5.352,4.254
		c-44.324-0.002-80.375-36.053-80.375-80.379c0-2.574,1.752-4.777,4.256-5.35l17.709-4.084c2.578-0.598,5.215,0.74,6.285,3.184
		l8.174,19.061c0.955,2.246,0.311,4.861-1.578,6.404l-9.459,7.596c5.971,12.16,15.857,22.047,28.021,28.021l7.744-9.453
		c1.527-1.893,4.162-2.549,6.408-1.576l19.061,8.172C138.442,112.277,139.937,114.949,139.339,117.514z"/>
</g>
</svg>
