<?xml version="1.0" encoding="utf-8"?>
<!-- Generator: Adobe Illustrator 16.0.0, SVG Export Plug-In . SVG Version: 6.00 Build 0)  -->
<!DOCTYPE svg PUBLIC "-//W3C//DTD SVG 1.1//EN" "http://www.w3.org/Graphics/SVG/1.1/DTD/svg11.dtd">
<svg version="1.1" id="Layer_1" xmlns="http://www.w3.org/2000/svg" xmlns:xlink="http://www.w3.org/1999/xlink" x="0px" y="0px"
	 width="738px" height="828px" viewBox="0 0 738 828" enable-background="new 0 0 738 828" xml:space="preserve">
<g>
	<g>
		<path fill-rule="evenodd" clip-rule="evenodd" fill="#FFFFFF" d="M442.169,411.816c-5.049-5.865-9.717-11.324-14.425-16.75
			c-2.512-2.896-5.141-5.696-7.605-8.632c-0.594-0.711-1.061-1.787-1.066-2.699c-0.066-11.079-0.034-22.16-0.031-33.239
			c-0.003-0.813-0.032-1.623-0.424-2.599c-0.299,0.594-0.632,1.174-0.894,1.783c-3.453,7.958-6.92,15.91-10.32,23.891
			c-0.646,1.521-1.442,2.038-3.214,2.024c-9.563-0.095-19.125,0.061-28.688,0.065c-6.836,0.004-13.665-0.136-20.501-0.148
			c-5.53-0.012-11.063,0.077-16.594,0.104c-2.322,0.013-4.649,0.079-6.96-0.087c-0.612-0.043-1.434-0.748-1.708-1.349
			c-3.324-7.422-6.562-14.886-9.824-22.337c-0.568-1.296-1.137-2.593-1.702-3.89c-0.239,0.017-0.478,0.032-0.717,0.049
			c0.108,4.027,0.274,8.052,0.303,12.08c0.062,7.855,0.064,15.71,0.023,23.566c-0.006,0.749-0.32,1.655-0.807,2.22
			c-7.124,8.324-14.301,16.603-21.471,24.889c-0.257,0.301-0.557,0.565-1.087,1.093c-0.836-4.184-1.623-8.113-2.404-12.044
			c-2.654-13.337-5.335-26.673-7.954-40.017c-2.027-10.333-3.974-20.684-5.984-31.023c-0.856-4.424-1.754-8.846-2.695-13.253
			c-0.225-1.058-0.096-1.662,0.889-2.36c7.744-5.51,15.413-11.127,23.141-16.661c1.532-1.097,2.174-2.164,1.728-4.223
			c-1.553-7.145-3.176-14.302-4.126-21.537c-1.39-10.63-2.43-21.318-3.231-32.008c-0.501-6.665-0.53-13.387-0.335-20.069
			c0.228-7.782,0.696-15.575,1.483-23.321c0.833-8.151,1.888-16.3,3.345-24.358c1.567-8.661,3.561-17.254,5.67-25.803
			c1.641-6.63,3.64-13.177,5.682-19.698c1.842-5.865,3.939-11.65,6.002-17.443c0.164-0.46,0.956-0.985,1.463-0.995
			c4.982-0.076,9.965-0.057,14.947-0.055c7.025,0.009,14.053,0.029,21.083,0.034c7.232,0.006,14.47,0.01,21.707-0.005
			c7.989-0.013,15.979-0.045,23.974-0.081c7.441-0.029,14.886-0.07,22.482-0.108c1.958,5.604,4.029,10.959,5.699,16.436
			c2.511,8.234,4.854,16.524,7.045,24.848c1.48,5.607,2.782,11.274,3.808,16.979c1.448,8.066,2.754,16.168,3.788,24.295
			c1.641,12.899,2.567,25.878,1.955,38.872c-0.571,12.077-1.34,24.173-2.759,36.173c-1.122,9.474-3.319,18.824-5.148,28.21
			c-0.266,1.364-0.225,2.156,1.02,3.049c7.838,5.622,15.576,11.381,23.402,17.019c1.314,0.95,1.608,1.891,1.271,3.453
			c-1.253,5.74-2.352,11.516-3.514,17.278c-1.413,7.031-2.844,14.054-4.248,21.086c-1.119,5.63-2.188,11.273-3.316,16.902
			c-1.393,6.959-2.841,13.91-4.233,20.871c-1.127,5.632-2.205,11.274-3.313,16.911C442.639,409.917,442.452,410.62,442.169,411.816z
			 M402.482,224.373c18.854-18.299,18.903-48.858,0.81-67.455c-19.268-19.797-49.666-19.288-68.556-0.815
			c-19.026,18.614-19.073,49.526-0.3,68.318C353.271,243.271,384.01,243.242,402.482,224.373z M379.609,282.834
			c6.62-6.632,6.413-16.344,0.269-22.476c-6.398-6.39-15.804-6.717-22.634,0.031c-6.643,6.559-5.973,16.479,0.056,22.499
			C363.428,289.009,373.418,288.989,379.609,282.834z"/>
		<path fill-rule="evenodd" clip-rule="evenodd" fill="#FFFFFF" d="M418.583,99.689c-33.289-0.079-66.283-0.156-99.251-0.234
			C320.384,88.356,358.594,18.379,368.989,9C389.455,37.032,405.486,67.386,418.583,99.689z"/>
		<path fill-rule="evenodd" clip-rule="evenodd" fill="#FFFFFF" d="M398.925,387.977c0.714,2.469,1.541,4.914,2.13,7.415
			c2.237,9.555,3.473,19.242,3.085,29.064c-0.396,10.004-1.926,19.848-4.554,29.528c-2.716,10-6.419,19.615-11.156,28.805
			c-4.609,8.946-9.784,17.557-16.215,25.352c-1.334,1.619-2.607,3.29-4.242,5.363c-3.234-4.466-6.291-8.563-9.219-12.752
			c-5.379-7.696-9.866-15.91-13.744-24.455c-4.65-10.25-8.129-20.894-10.259-31.937c-1.655-8.595-2.427-17.282-2.168-26.069
			c0.248-8.317,1.387-16.474,3.502-24.505c0.514-1.959,1.163-3.883,1.958-5.839c2.25,34.351,11.728,66.366,30.191,95.803
			c18.433-29.453,28.045-61.393,30.174-95.705C398.578,388.021,398.75,387.999,398.925,387.977z"/>
	</g>
	<path fill-rule="evenodd" clip-rule="evenodd" fill="#FFFFFF" d="M329.757,541.076c0,0,12.049-34.615,24.113-47.851h28.775
		c0,0,23.481,29.406,29.081,51.966L329.757,541.076z"/>
	<path fill="#FFFFFF" d="M738,791.73c0-9.03-6.8-16.46-15.55-17.48c0.32-1.33,0.51-2.71,0.51-4.14c0-3.86-1.25-7.41-3.36-10.311
		c1.47-2.069,2.35-4.579,2.35-7.31c0-6.97-5.65-12.61-12.62-12.61c-0.73,0-1.44,0.07-2.13,0.19c3.75-4.44,6.02-10.16,6.02-16.42
		c0-14.08-11.42-25.49-25.49-25.49c-0.89,0-1.76,0.04-2.62,0.13c1.67-3.399,2.62-7.22,2.62-11.26c0-14.08-11.42-25.49-25.49-25.49
		h-0.26c0.17-1.16,0.26-2.34,0.26-3.55c0-14.08-11.42-25.49-25.49-25.49c-9.71,0-18.14,5.42-22.45,13.4
		c-2.42-1.26-5.17-1.98-8.09-1.98c-6.65,0-12.42,3.681-15.43,9.11c-2.02-2.21-4.82-3.71-7.96-4.04c0.83-2.52,1.29-5.22,1.29-8.02
		c0-14.07-11.4-25.48-25.47-25.48c-1.29,0-2.55,0.1-3.78,0.28c2.41-4.7,3.78-10.021,3.78-15.67c0-19-15.41-34.4-34.41-34.4
		c-12.56,0-23.54,6.73-29.55,16.78c-1.82-7.8-8.79-13.61-17.14-13.61c-4.47,0-8.54,1.68-11.65,4.43c-2.25-3.47-6.15-5.76-10.58-5.76
		c-1.37,0-2.68,0.221-3.9,0.62c0.2-1.43,0.31-2.89,0.31-4.37c0-16.8-13.62-30.42-30.41-30.42c-5.93,0-11.47,1.71-16.15,4.65
		L378,528.385V522l-9,3.193L360,522v6.386l-27.16,9.635c-4.68-2.94-10.22-4.65-16.15-4.65c-16.79,0-30.41,13.62-30.41,30.42
		c0,1.48,0.11,2.94,0.31,4.37c-1.22-0.399-2.53-0.62-3.9-0.62c-4.43,0-8.33,2.29-10.58,5.76c-3.11-2.75-7.18-4.43-11.65-4.43
		c-8.35,0-15.32,5.811-17.14,13.61c-6.01-10.05-16.99-16.78-29.55-16.78c-19,0-34.41,15.4-34.41,34.4c0,5.649,1.37,10.97,3.78,15.67
		c-1.23-0.181-2.49-0.28-3.78-0.28c-14.07,0-25.47,11.41-25.47,25.48c0,2.8,0.46,5.5,1.29,8.02c-3.14,0.33-5.94,1.83-7.96,4.04
		c-3.01-5.43-8.78-9.11-15.43-9.11c-2.92,0-5.67,0.721-8.09,1.98c-4.31-7.98-12.74-13.4-22.45-13.4
		c-14.07,0-25.49,11.41-25.49,25.49c0,1.21,0.09,2.39,0.26,3.55h-0.26c-14.07,0-25.49,11.41-25.49,25.49
		c0,4.04,0.95,7.86,2.62,11.26c-0.86-0.09-1.73-0.13-2.62-0.13c-14.07,0-25.49,11.41-25.49,25.49c0,6.26,2.27,11.979,6.02,16.42
		c-0.69-0.12-1.4-0.19-2.13-0.19c-6.97,0-12.62,5.641-12.62,12.61c0,2.73,0.88,5.24,2.35,7.31c-2.11,2.9-3.36,6.45-3.36,10.311
		c0,1.43,0.19,2.81,0.51,4.14C6.8,775.27,0,782.7,0,791.73c0,6.56,3.59,12.26,8.9,15.3c-1.79,2.76-2.85,6.04-2.85,9.58
		c0,7.1,4.22,13.21,10.28,16l-0.28,1.61l6.24-0.07c0.45,0.04,0.91,0.07,1.38,0.07c0.65,0,1.28-0.04,1.91-0.101L369,830.261
		l343.42,3.858c0.63,0.061,1.26,0.101,1.91,0.101c0.47,0,0.93-0.03,1.38-0.07l6.24,0.07l-0.28-1.61c6.06-2.79,10.28-8.9,10.28-16
		c0-3.54-1.06-6.82-2.85-9.58C734.41,803.99,738,798.29,738,791.73z"/>
</g>
</svg>
