<?xml version="1.0" encoding="utf-8"?>
<!-- Generator: Adobe Illustrator 16.0.0, SVG Export Plug-In . SVG Version: 6.00 Build 0)  -->
<!DOCTYPE svg PUBLIC "-//W3C//DTD SVG 1.1//EN" "http://www.w3.org/Graphics/SVG/1.1/DTD/svg11.dtd">
<svg version="1.1" id="Layer_1" xmlns="http://www.w3.org/2000/svg" xmlns:xlink="http://www.w3.org/1999/xlink" x="0px" y="0px"
	 width="198px" height="198px" viewBox="0 0 198 198" enable-background="new 0 0 198 198" xml:space="preserve">
<linearGradient id="SVGID_1_" gradientUnits="userSpaceOnUse" x1="44.9746" y1="195.5732" x2="146.0779" y2="20.4572">
	<stop  offset="0" style="stop-color:#ED2290"/>
	<stop  offset="1" style="stop-color:#6A2365"/>
</linearGradient>
<path fill="url(#SVGID_1_)" d="M163.388,33.849C147.395,17.817,126.096,9,103.462,9c-46.72,0-84.737,38.018-84.737,84.737
	c0,14.924,3.895,29.505,11.299,42.368L18,180l44.926-11.794c12.367,6.756,26.299,10.306,40.498,10.306h0.038
	c46.681,0,85.538-38.017,85.538-84.736C189,71.141,179.381,49.88,163.388,33.849z M103.462,164.236
	c-12.673,0-25.077-3.396-35.88-9.81l-2.557-1.526l-26.643,6.984l7.1-25.993l-1.68-2.672c-7.062-11.222-10.764-24.161-10.764-37.482
	c0-38.819,31.604-70.423,70.461-70.423c18.816,0,36.49,7.328,49.773,20.649s21.451,30.993,21.412,49.812
	C174.686,132.631,142.28,164.236,103.462,164.236z M142.09,111.486c-2.1-1.068-12.52-6.184-14.467-6.872
	c-1.947-0.725-3.359-1.068-4.771,1.069c-1.411,2.138-5.458,6.871-6.717,8.321c-1.223,1.413-2.482,1.603-4.581,0.534
	c-12.442-6.222-20.612-11.107-28.817-25.191c-2.177-3.741,2.174-3.475,6.221-11.565c0.688-1.412,0.344-2.634-0.19-3.702
	s-4.771-11.49-6.528-15.727c-1.717-4.122-3.473-3.55-4.77-3.626c-1.223-0.076-2.635-0.076-4.047-0.076
	c-1.411,0-3.701,0.533-5.648,2.634c-1.947,2.139-7.404,7.251-7.404,17.672s7.595,20.498,8.625,21.909
	c1.069,1.412,14.924,22.787,36.186,31.987c13.436,5.803,18.703,6.298,25.42,5.305c4.084-0.61,12.521-5.114,14.276-10.076
	c1.755-4.962,1.755-9.199,1.222-10.077C145.602,113.051,144.189,112.517,142.09,111.486z"/>
</svg>
