<?xml version="1.0" encoding="utf-8"?>
<!-- Generator: Adobe Illustrator 16.0.0, SVG Export Plug-In . SVG Version: 6.00 Build 0)  -->
<!DOCTYPE svg PUBLIC "-//W3C//DTD SVG 1.1//EN" "http://www.w3.org/Graphics/SVG/1.1/DTD/svg11.dtd">
<svg version="1.1" id="Layer_1" xmlns="http://www.w3.org/2000/svg" xmlns:xlink="http://www.w3.org/1999/xlink" x="0px" y="0px"
	 width="1980px" height="6480px" viewBox="0 0 1980 6480" enable-background="new 0 0 1980 6480" xml:space="preserve">
<linearGradient id="SVGID_1_" gradientUnits="userSpaceOnUse" x1="998.417" y1="5130" x2="998.4169" y2="6504.7754">
	<stop  offset="0.5376" style="stop-color:#5174B9"/>
	<stop  offset="1" style="stop-color:#3A51A3"/>
</linearGradient>
<rect x="8" y="5130" fill="url(#SVGID_1_)" width="1980.834" height="1374.775"/>
<path fill="#3A51A3" d="M1070,5733c0,0,632,474,649,489s0,195,0,195h-589L1070,5733z"/>
<linearGradient id="SVGID_2_" gradientUnits="userSpaceOnUse" x1="990" y1="2.4604" x2="989.9999" y2="1377.2358">
	<stop  offset="0" style="stop-color:#897EBB"/>
	<stop  offset="0.5269" style="stop-color:#5174B9"/>
</linearGradient>
<rect x="-0.417" y="2.46" fill="url(#SVGID_2_)" width="1980.835" height="1374.775"/>
<circle fill="#FFFFFF" cx="1691.974" cy="926.34" r="3.711"/>
<path fill-rule="evenodd" clip-rule="evenodd" fill="none" d="M174.387,136.192c-6.191,6.324-16.494,6.334-22.807,0.016
	c-6.292-6.298-6.276-16.659,0.101-22.898c6.331-6.191,16.52-6.362,22.978,0.273C180.723,119.816,180.706,130.059,174.387,136.192z"
	/>
<path fill-rule="evenodd" clip-rule="evenodd" fill="none" d="M166.721,155.786c-2.075,2.063-5.424,2.07-7.478,0.018
	c-2.021-2.018-2.246-5.343-0.019-7.541c2.289-2.262,5.441-2.152,7.586-0.01C168.87,150.308,168.939,153.563,166.721,155.786z"/>
<g>
	<path fill-rule="evenodd" clip-rule="evenodd" fill="#FFFFFF" stroke="#FFFFFF" stroke-miterlimit="10" d="M416.342,689.815
		c-5.049-5.865-9.717-11.324-14.425-16.751c-2.512-2.896-5.14-5.696-7.605-8.632c-0.594-0.711-1.061-1.787-1.066-2.699
		c-0.067-11.079-0.035-22.16-0.032-33.239c-0.003-0.813-0.032-1.623-0.423-2.599c-0.299,0.594-0.632,1.174-0.894,1.783
		c-3.453,7.958-6.92,15.91-10.32,23.891c-0.646,1.521-1.442,2.038-3.214,2.024c-9.563-0.095-19.125,0.061-28.688,0.065
		c-6.835,0.004-13.665-0.136-20.501-0.148c-5.53-0.012-11.063,0.077-16.593,0.104c-2.322,0.013-4.65,0.079-6.96-0.087
		c-0.612-0.043-1.434-0.748-1.708-1.349c-3.325-7.422-6.562-14.886-9.825-22.337c-0.568-1.296-1.137-2.593-1.702-3.89
		c-0.239,0.017-0.478,0.032-0.717,0.049c0.108,4.027,0.274,8.052,0.303,12.08c0.062,7.855,0.064,15.71,0.023,23.566
		c-0.006,0.749-0.32,1.655-0.807,2.22c-7.124,8.324-14.3,16.604-21.471,24.89c-0.256,0.3-0.557,0.565-1.087,1.093
		c-0.836-4.184-1.623-8.113-2.404-12.045c-2.654-13.337-5.335-26.673-7.954-40.017c-2.028-10.333-3.974-20.684-5.985-31.023
		c-0.856-4.424-1.754-8.846-2.695-13.253c-0.224-1.058-0.096-1.662,0.889-2.36c7.745-5.51,15.413-11.127,23.141-16.661
		c1.533-1.097,2.174-2.164,1.728-4.223c-1.553-7.145-3.176-14.302-4.125-21.537c-1.39-10.63-2.43-21.318-3.231-32.008
		c-0.501-6.665-0.53-13.387-0.335-20.069c0.227-7.782,0.696-15.575,1.483-23.321c0.833-8.151,1.888-16.3,3.345-24.358
		c1.567-8.661,3.561-17.254,5.67-25.803c1.64-6.63,3.639-13.177,5.682-19.698c1.841-5.865,3.939-11.65,6.002-17.443
		c0.164-0.46,0.956-0.985,1.463-0.995c4.982-0.076,9.965-0.057,14.947-0.055c7.025,0.009,14.052,0.029,21.083,0.034
		c7.232,0.006,14.469,0.01,21.707-0.005c7.989-0.013,15.979-0.045,23.974-0.081c7.441-0.029,14.886-0.07,22.482-0.108
		c1.958,5.604,4.029,10.959,5.699,16.436c2.511,8.234,4.854,16.524,7.045,24.848c1.48,5.607,2.783,11.274,3.808,16.979
		c1.448,8.066,2.753,16.168,3.788,24.295c1.64,12.899,2.567,25.878,1.955,38.872c-0.571,12.077-1.34,24.173-2.759,36.173
		c-1.122,9.474-3.319,18.824-5.148,28.21c-0.265,1.364-0.225,2.156,1.02,3.049c7.838,5.622,15.577,11.381,23.403,17.019
		c1.314,0.95,1.608,1.891,1.27,3.453c-1.253,5.74-2.351,11.516-3.514,17.278c-1.413,7.031-2.844,14.054-4.248,21.086
		c-1.119,5.63-2.188,11.273-3.316,16.902c-1.393,6.959-2.841,13.91-4.233,20.871c-1.127,5.632-2.206,11.274-3.313,16.911
		C416.812,687.915,416.625,688.619,416.342,689.815z M376.655,502.371c18.854-18.299,18.904-48.858,0.81-67.455
		c-19.268-19.797-49.667-19.288-68.556-0.815c-19.026,18.614-19.073,49.526-0.3,68.318
		C327.443,521.269,358.183,521.24,376.655,502.371z M353.783,560.833c6.62-6.632,6.413-16.344,0.268-22.476
		c-6.398-6.39-15.804-6.717-22.633,0.031c-6.643,6.559-5.973,16.479,0.055,22.499C337.601,567.008,347.591,566.988,353.783,560.833z
		"/>
	<path fill-rule="evenodd" clip-rule="evenodd" fill="#FFFFFF" stroke="#FFFFFF" stroke-miterlimit="10" d="M392.756,377.688
		c-33.289-0.079-66.283-0.156-99.251-0.234c1.052-11.099,39.262-81.076,49.658-90.455
		C363.628,315.031,379.659,345.384,392.756,377.688z"/>
	<path fill-rule="evenodd" clip-rule="evenodd" fill="#FFFFFF" stroke="#FFFFFF" stroke-miterlimit="10" d="M373.098,665.975
		c0.714,2.469,1.541,4.914,2.13,7.415c2.238,9.556,3.473,19.242,3.085,29.064c-0.396,10.004-1.926,19.848-4.554,29.529
		c-2.715,10-6.418,19.615-11.156,28.805c-4.609,8.946-9.784,17.556-16.214,25.352c-1.334,1.619-2.608,3.29-4.243,5.363
		c-3.234-4.465-6.291-8.562-9.219-12.752c-5.378-7.696-9.866-15.91-13.744-24.455c-4.65-10.25-8.129-20.894-10.259-31.937
		c-1.655-8.595-2.427-17.282-2.167-26.07c0.248-8.317,1.387-16.474,3.502-24.505c0.513-1.959,1.163-3.883,1.958-5.839
		c2.25,34.351,11.728,66.366,30.191,95.803c18.432-29.453,28.044-61.393,30.174-95.706
		C372.751,666.02,372.923,665.997,373.098,665.975z"/>
</g>
<path fill-rule="evenodd" clip-rule="evenodd" fill="#FDFDFE" d="M303.93,819.075c0,0,12.048-34.615,24.113-47.851h28.775
	c0,0,23.481,29.406,29.082,51.966L303.93,819.075z"/>
<path fill="#FDFDFE" d="M717.867,1076.433c0-9.028-6.796-16.46-15.549-17.485c0.32-1.329,0.509-2.709,0.509-4.137
	c0-3.856-1.253-7.412-3.355-10.313c1.469-2.063,2.341-4.578,2.341-7.303c0-6.968-5.649-12.617-12.617-12.617
	c-0.727,0-1.435,0.075-2.128,0.193c3.748-4.436,6.017-10.161,6.017-16.423c0-14.078-11.413-25.491-25.491-25.491
	c-0.885,0-1.759,0.045-2.62,0.133c1.675-3.396,2.621-7.217,2.621-11.259c0-14.078-11.413-25.491-25.491-25.491
	c-0.084,0-0.167,0.005-0.251,0.006c0.163-1.163,0.252-2.349,0.252-3.556c0-14.078-11.413-25.491-25.491-25.491
	c-9.704,0-18.14,5.424-22.446,13.404c-2.425-1.258-5.173-1.98-8.094-1.98c-6.642,0-12.42,3.679-15.422,9.107
	c-2.025-2.211-4.819-3.707-7.967-4.037c0.838-2.524,1.298-5.221,1.298-8.026c0-14.071-11.408-25.479-25.478-25.479
	c-1.284,0-2.544,0.097-3.776,0.28c2.408-4.699,3.776-10.021,3.776-15.664c0-19.001-15.405-34.407-34.406-34.407
	c-12.559,0-23.542,6.732-29.549,16.781c-1.817-7.794-8.793-13.608-17.141-13.608c-4.473,0-8.544,1.681-11.651,4.428
	c-2.249-3.464-6.145-5.761-10.583-5.761c-1.362,0-2.671,0.222-3.9,0.622c0.205-1.427,0.317-2.885,0.317-4.37
	c0-16.798-13.618-30.416-30.416-30.416c-5.932,0-11.463,1.705-16.143,4.642L336,805.333l-31.111,13.331
	c-3.33-2.095-7.258-3.325-11.482-3.325c-11.755,0-21.299,9.39-21.589,21.074c-2.989-1.97-6.563-3.125-10.411-3.125
	c-9.087,0-16.673,6.401-18.516,14.938c-2.308-2.969-5.905-4.888-9.957-4.888c-1.775,0-3.463,0.371-4.996,1.032
	c-5.498-4.625-12.59-7.416-20.337-7.416c-14.898,0-27.383,10.309-30.729,24.181c-7.241,2.665-12.417,9.604-12.417,17.769
	c0,2.957,0.697,5.745,1.905,8.238c-5.968,1-10.521,6.176-10.521,12.429c0,1.05,0.143,2.064,0.384,3.039
	c-0.845-0.053-1.693-0.089-2.551-0.089c-22.183,0-40.167,17.983-40.167,40.167c0,2.42,0.226,4.787,0.637,7.089
	c-0.976-0.111-1.965-0.174-2.97-0.174c-11.292,0-20.898,7.2-24.489,17.257c-1.777-0.384-3.62-0.591-5.511-0.591
	c-14.359,0-26,11.641-26,26v119.395l637.117,7.152c0.626,0.067,1.261,0.107,1.906,0.107c0.468,0,0.927-0.034,1.385-0.07l6.231,0.07
	l-0.276-1.617c6.06-2.786,10.276-8.894,10.276-16c0-3.536-1.052-6.821-2.845-9.58
	C714.279,1088.694,717.867,1082.987,717.867,1076.433z"/>
<polygon fill="#FFFFFF" points="867.568,106.114 863,105.323 859.759,108.637 859.1,104.048 854.947,101.99 859.107,99.945 
	859.781,95.358 863.012,98.684 867.582,97.908 865.418,102.008 "/>
<polygon fill="#FFFFFF" points="1627.461,229.997 1622.893,229.205 1619.651,232.519 1618.992,227.93 1614.84,225.872 1619,223.827 
	1619.674,219.241 1622.904,222.566 1627.475,221.791 1625.311,225.89 "/>
<polygon fill="#FFFFFF" points="1688.249,700.932 1683.681,700.141 1680.439,703.455 1679.78,698.866 1675.628,696.808 
	1679.788,694.763 1680.462,690.176 1683.692,693.501 1688.263,692.726 1686.099,696.826 "/>
<polygon fill="#FFFFFF" points="1845.15,128.906 1840.582,128.114 1837.341,131.428 1836.682,126.839 1832.529,124.781 
	1836.689,122.736 1837.363,118.15 1840.594,121.475 1845.164,120.7 1843,124.799 "/>
<polygon fill="#FFFFFF" points="1303.568,106.114 1299,105.323 1295.759,108.637 1295.1,104.048 1290.947,101.99 1295.107,99.945 
	1295.781,95.358 1299.012,98.684 1303.582,97.908 1301.418,102.008 "/>
<polygon fill="#FFFFFF" points="1911.15,801.324 1906.582,800.532 1903.341,803.846 1902.682,799.257 1898.529,797.199 
	1902.689,795.154 1903.363,790.568 1906.594,793.893 1911.164,793.118 1909,797.217 "/>
<polygon fill="#FFFFFF" points="1465.469,606.529 1460.9,605.738 1457.659,609.052 1457,604.463 1452.848,602.405 1457.008,600.36 
	1457.682,595.773 1460.912,599.099 1465.482,598.323 1463.318,602.423 "/>
<polygon fill="#FFFFFF" points="1275.568,926.746 1271,925.954 1267.759,929.268 1267.1,924.679 1262.947,922.621 1267.107,920.576 
	1267.781,915.99 1271.012,919.315 1275.582,918.54 1273.418,922.639 "/>
<polygon fill="#FFFFFF" points="783.161,1020.337 778.593,1019.546 775.352,1022.86 774.692,1018.271 770.54,1016.213 
	774.7,1014.168 775.374,1009.582 778.604,1012.907 783.175,1012.131 781.011,1016.231 "/>
<polygon fill="#FFFFFF" points="574.76,316.292 570.191,315.5 566.95,318.814 566.291,314.226 562.139,312.167 566.299,310.123 
	566.973,305.536 570.203,308.861 574.773,308.086 572.609,312.186 "/>
<polygon fill="#FFFFFF" points="730.488,670.061 725.919,669.27 722.678,672.583 722.019,667.995 717.867,665.937 722.027,663.892 
	722.701,659.305 725.931,662.63 730.501,661.855 728.337,665.955 "/>
<polygon fill="#FFFFFF" points="920.81,883.023 916.241,882.231 913,885.545 912.341,880.957 908.188,878.898 912.349,876.854 
	913.022,872.267 916.253,875.592 920.823,874.817 918.659,878.917 "/>
<polygon fill="#FFFFFF" points="1159.469,606.529 1154.9,605.738 1151.659,609.052 1151,604.463 1146.848,602.405 1151.008,600.36 
	1151.682,595.773 1154.912,599.099 1159.482,598.323 1157.318,602.423 "/>
<polygon fill="#FFFFFF" points="119.81,309.653 115.241,308.861 112,312.175 111.341,307.586 107.188,305.528 111.349,303.483 
	112.022,298.897 115.253,302.222 119.823,301.447 117.659,305.546 "/>
<polygon fill="#FFFFFF" points="132.444,663.422 127.876,662.63 124.635,665.944 123.976,661.355 119.823,659.297 123.983,657.252 
	124.657,652.666 127.888,655.991 132.458,655.216 130.294,659.315 "/>
<polygon fill="#FFFFFF" points="61.477,56.431 56.908,55.639 53.667,58.953 53.008,54.364 48.855,52.306 53.016,50.261 
	53.689,45.675 56.92,49 61.49,48.225 59.326,52.324 "/>
<polygon fill="#FDFDFE" points="2878.132,565.236 637.8,1065.254 -401.338,806.723 -530.535,1326.014 -1505.725,1543.666 
	-584.443,5671.465 1337.457,5242.518 2410.472,5509.479 2543.878,4973.262 3799.42,4693.037 "/>
<circle fill="#BEB8B3" cx="1036.491" cy="6486.51" r="753.509"/>
<circle fill="#DEDAD4" cx="1004.565" cy="6444.003" r="711.003"/>
<g>
	<g>
		<circle fill="#C5C1BB" cx="641.637" cy="6118.801" r="111.015"/>
		<path fill="#DEDAD4" d="M758.079,6123.525c0,59.197-44.938,107.182-100.37,107.182c-55.433,0-100.37-47.984-100.37-107.182
			c0-59.191,44.938-107.178,100.37-107.178C713.141,6016.348,758.079,6064.334,758.079,6123.525z"/>
		<circle fill="none" stroke="#E9E8E1" stroke-width="11" stroke-miterlimit="10" cx="641.637" cy="6118.803" r="114"/>
	</g>
	<g>
		<circle fill="#C5C1BB" cx="1071.264" cy="6280.378" r="64.834"/>
		<ellipse fill="#DEDAD4" cx="1080.649" cy="6283.138" rx="58.618" ry="62.597"/>
		<circle fill="none" stroke="#E9E8E1" stroke-width="11" stroke-miterlimit="10" cx="1071.263" cy="6280.379" r="66.579"/>
	</g>
	<g>
		<circle fill="#C5C1BB" cx="724.288" cy="6441.8" r="64.834"/>
		<ellipse fill="#DEDAD4" cx="733.674" cy="6444.56" rx="58.618" ry="62.597"/>
		<circle fill="none" stroke="#E9E8E1" stroke-width="11" stroke-miterlimit="10" cx="724.288" cy="6441.801" r="66.579"/>
	</g>
	<g>
		<circle fill="#C5C1BB" cx="977.933" cy="6107.256" r="42.043"/>
		<ellipse fill="#DEDAD4" cx="984.019" cy="6109.045" rx="38.012" ry="40.593"/>
		<circle fill="none" stroke="#E9E8E1" stroke-width="11" stroke-miterlimit="10" cx="977.933" cy="6107.257" r="43.174"/>
	</g>
	<g>
		<circle fill="#C5C1BB" cx="1330.324" cy="6408.858" r="87.13"/>
		<path fill="#DEDAD4" d="M1421.715,6412.565c0,46.464-35.27,84.124-78.777,84.124c-43.506,0-78.777-37.66-78.777-84.124
			c0-46.455,35.271-84.118,78.777-84.118C1386.445,6328.447,1421.715,6366.11,1421.715,6412.565z"/>
		<circle fill="none" stroke="#E9E8E1" stroke-width="11" stroke-miterlimit="10" cx="1330.324" cy="6408.859" r="89.474"/>
	</g>
	<g>
		<circle fill="#C5C1BB" cx="1161.196" cy="6004.8" r="87.13"/>
		<path fill="#DEDAD4" d="M1252.587,6008.507c0,46.464-35.27,84.124-78.777,84.124c-43.506,0-78.777-37.66-78.777-84.124
			c0-46.455,35.271-84.118,78.777-84.118C1217.317,5924.389,1252.587,5962.052,1252.587,6008.507z"/>
		<circle fill="none" stroke="#E9E8E1" stroke-width="11" stroke-miterlimit="10" cx="1161.196" cy="6004.801" r="89.474"/>
	</g>
</g>
</svg>
