<?xml version="1.0" encoding="utf-8"?>
<!-- Generator: Adobe Illustrator 16.0.0, SVG Export Plug-In . SVG Version: 6.00 Build 0)  -->
<!DOCTYPE svg PUBLIC "-//W3C//DTD SVG 1.1//EN" "http://www.w3.org/Graphics/SVG/1.1/DTD/svg11.dtd">
<svg version="1.1" id="Layer_1" xmlns="http://www.w3.org/2000/svg" xmlns:xlink="http://www.w3.org/1999/xlink" x="0px" y="0px"
	 width="345.034px" height="610.445px" viewBox="0 0 345.034 610.445" enable-background="new 0 0 345.034 610.445"
	 xml:space="preserve">
<g>
	<path fill-rule="evenodd" clip-rule="evenodd" d="M234.768,450.294c-4.887-5.676-9.404-10.961-13.961-16.212
		c-2.43-2.802-4.974-5.511-7.358-8.351c-0.575-0.689-1.027-1.733-1.033-2.614c-0.063-10.725-0.034-21.445-0.03-32.169
		c-0.004-0.785-0.031-1.571-0.409-2.515c-0.29,0.576-0.611,1.137-0.865,1.726c-3.341,7.701-6.696,15.398-9.987,23.12
		c-0.627,1.47-1.396,1.972-3.11,1.961c-9.255-0.096-18.509,0.056-27.763,0.062c-6.615,0.006-13.226-0.133-19.84-0.145
		c-5.352-0.013-10.707,0.075-16.059,0.101c-2.247,0.014-4.5,0.079-6.736-0.085c-0.592-0.039-1.387-0.723-1.651-1.303
		c-3.218-7.186-6.351-14.408-9.509-21.618c-0.55-1.256-1.099-2.511-1.646-3.765c-0.23,0.019-0.463,0.03-0.693,0.049
		c0.104,3.896,0.264,7.789,0.292,11.69c0.061,7.603,0.063,15.202,0.023,22.806c-0.006,0.724-0.311,1.6-0.78,2.148
		c-6.896,8.056-13.84,16.068-20.779,24.09c-0.248,0.285-0.538,0.545-1.051,1.054c-0.811-4.049-1.571-7.853-2.326-11.657
		c-2.57-12.905-5.164-25.813-7.699-38.727c-1.963-9.997-3.847-20.014-5.791-30.021c-0.829-4.283-1.697-8.561-2.608-12.827
		c-0.218-1.021-0.094-1.607,0.86-2.284c7.494-5.329,14.916-10.765,22.394-16.123c1.484-1.061,2.104-2.091,1.672-4.087
		c-1.504-6.912-3.073-13.84-3.992-20.84c-1.345-10.29-2.352-20.632-3.127-30.976c-0.485-6.453-0.513-12.954-0.323-19.423
		c0.219-7.533,0.674-15.074,1.434-22.57c0.807-7.889,1.828-15.771,3.237-23.573c1.518-8.379,3.446-16.697,5.487-24.97
		c1.587-6.418,3.522-12.752,5.499-19.063c1.781-5.679,3.812-11.272,5.809-16.88c0.158-0.445,0.925-0.952,1.415-0.961
		c4.822-0.075,9.644-0.058,14.465-0.058c6.799,0.014,13.6,0.03,20.404,0.036c6.998,0.005,14.001,0.01,21.006-0.006
		c7.732-0.014,15.463-0.044,23.2-0.081c7.201-0.027,14.405-0.067,21.758-0.101c1.895,5.422,3.899,10.604,5.515,15.904
		c2.432,7.969,4.697,15.991,6.818,24.047c1.433,5.427,2.693,10.91,3.686,16.432c1.401,7.805,2.664,15.647,3.666,23.511
		c1.587,12.485,2.484,25.044,1.892,37.619c-0.552,11.687-1.297,23.394-2.67,35.005c-1.085,9.17-3.213,18.221-4.983,27.299
		c-0.256,1.324-0.217,2.089,0.987,2.956c7.585,5.438,15.075,11.011,22.647,16.468c1.273,0.92,1.557,1.83,1.23,3.342
		c-1.213,5.554-2.275,11.146-3.401,16.72c-1.367,6.805-2.752,13.601-4.11,20.407c-1.083,5.447-2.118,10.909-3.209,16.356
		c-1.348,6.737-2.749,13.463-4.096,20.197c-1.093,5.451-2.137,10.914-3.208,16.366C235.221,448.455,235.041,449.135,234.768,450.294
		z M196.36,268.892c18.246-17.708,18.294-47.281,0.784-65.276c-18.646-19.158-48.066-18.667-66.345-0.788
		c-18.413,18.012-18.459,47.929-0.291,66.111C148.734,287.181,178.483,287.153,196.36,268.892z M174.225,325.47
		c6.407-6.418,6.207-15.817,0.26-21.754c-6.191-6.181-15.294-6.496-21.902,0.033c-6.429,6.346-5.781,15.948,0.053,21.773
		C158.565,331.446,168.233,331.429,174.225,325.47z"/>
	<path fill-rule="evenodd" clip-rule="evenodd" d="M211.941,148.231c-32.215-0.075-64.146-0.151-96.05-0.225
		c1.018-10.743,37.995-78.46,48.056-87.542C183.754,87.596,199.268,116.968,211.941,148.231z"/>
	<path fill-rule="evenodd" clip-rule="evenodd" d="M192.917,427.222c0.691,2.389,1.493,4.757,2.061,7.176
		c2.167,9.248,3.362,18.622,2.986,28.127c-0.383,9.682-1.862,19.208-4.406,28.578c-2.628,9.678-6.212,18.981-10.797,27.876
		c-4.461,8.656-9.469,16.987-15.692,24.531c-1.291,1.567-2.523,3.187-4.105,5.19c-3.129-4.322-6.086-8.287-8.921-12.342
		c-5.205-7.445-9.547-15.395-13.302-23.664c-4.499-9.92-7.865-20.221-9.927-30.908c-1.603-8.319-2.35-16.725-2.098-25.229
		c0.239-8.051,1.342-15.944,3.389-23.717c0.497-1.896,1.125-3.754,1.895-5.648c2.178,33.242,11.349,64.225,29.218,92.714
		c17.838-28.505,27.141-59.414,29.201-92.621C192.582,427.263,192.749,427.241,192.917,427.222z"/>
	<path fill-rule="evenodd" clip-rule="evenodd" fill="none" d="M196.36,268.892c-17.877,18.261-47.626,18.289-65.852,0.047
		c-18.168-18.183-18.122-48.1,0.291-66.111c18.278-17.879,47.698-18.37,66.345,0.788
		C214.654,221.611,214.606,251.184,196.36,268.892z"/>
	<path fill-rule="evenodd" clip-rule="evenodd" fill="none" d="M174.225,325.47c-5.991,5.959-15.659,5.976-21.59,0.053
		c-5.834-5.825-6.481-15.428-0.053-21.773c6.608-6.529,15.711-6.214,21.902-0.033C180.432,309.653,180.632,319.052,174.225,325.47z"
		/>
</g>
</svg>
